<svg xmlns="http://www.w3.org/2000/svg" width="41.419" height="45.102" viewBox="0 0 41.419 45.102">
  <g id="Сгруппировать_8262" data-name="Сгруппировать 8262" transform="translate(277.059 160.252)">
    <path id="Контур_25594" data-name="Контур 25594" d="M-276.17-155.668h23.208v14.151l-12.3-4.892h-11.1S-276-155.5-276.17-155.668Z" fill="none" stroke="#3d5567" stroke-linecap="round" stroke-linejoin="round" stroke-width="1.4"/>
    <path id="Контур_25595" data-name="Контур 25595" d="M-272.887-155.406v-3.431h7.358v3.288" transform="translate(0 -0.714)" fill="none" stroke="#3d5567" stroke-linecap="round" stroke-linejoin="round" stroke-width="1.4"/>
    <path id="Контур_25596" data-name="Контур 25596" d="M-273-145.592v9.649l2.943,3.963v11.973a2.718,2.718,0,0,0,2.717,2.717h0a2.717,2.717,0,0,0,2.717-2.717v-24" fill="none" stroke="#3d5567" stroke-linecap="round" stroke-linejoin="round" stroke-width="1.4"/>
    <path id="Контур_25597" data-name="Контур 25597" d="M-269.943-145.592v5.208L-267-135.63v9.17" transform="translate(-1 3)" fill="none" stroke="#3d5567" stroke-linecap="round" stroke-linejoin="round" stroke-width="1.4"/>
    <circle id="Эллипс_5915" data-name="Эллипс 5915" cx="2.434" cy="2.434" r="2.434" transform="translate(-261.34 -153.63)" fill="none" stroke="#3d5567" stroke-linecap="round" stroke-linejoin="round" stroke-width="1.4"/>
    <circle id="Эллипс_5916" data-name="Эллипс 5916" cx="1.132" cy="1.132" r="1.132" transform="translate(-272.547 -152.498)" fill="none" stroke="#3d5567" stroke-width="1.4"/>
    <path id="Контур_25598" data-name="Контур 25598" d="M-289.075-147.837h6.226v-9.432l-1.007-.54a5.167,5.167,0,0,0-4.251.019l-.855.379Z" transform="translate(43)" fill="none" stroke="#3d5567" stroke-linecap="round" stroke-linejoin="round" stroke-width="1.4"/>
    <path id="Контур_25599" data-name="Контур 25599" d="M-287.377-149.215V-129.2h2.491v-20.019" transform="translate(43 1.378)" fill="none" stroke="#3d5567" stroke-linecap="round" stroke-linejoin="round" stroke-width="1.4"/>
    <path id="Контур_25600" data-name="Контур 25600" d="M-288.962-130.309h-4.3v12.075l.181.132a11.811,11.811,0,0,0,13.743.095h0v-12.416h-3.849" transform="translate(43)" fill="none" stroke="#3d5567" stroke-linecap="round" stroke-linejoin="round" stroke-width="1.4"/>
  </g>
</svg>
