<svg id="bed" class="fill" xmlns="http://www.w3.org/2000/svg" width="33.5" height="23.804" viewBox="0 0 33.5 23.804">
  <path d="M31.772,66.581V58.324a2.054,2.054,0,0,0-2.052-2.052H3.781a2.054,2.054,0,0,0-2.052,2.052v8.257A2.039,2.039,0,0,0,0,68.594v5.111a.646.646,0,0,0,.646.646h.692v3.188a.646.646,0,0,0,.646.646H3.151V79.43a.646.646,0,0,0,1.292,0V78.185H29.057V79.43a.646.646,0,0,0,1.292,0V78.185h1.167a.646.646,0,0,0,.646-.646V74.351h.692a.646.646,0,0,0,.646-.646V68.594A2.04,2.04,0,0,0,31.772,66.581ZM3.021,58.324a.76.76,0,0,1,.76-.76H29.719a.76.76,0,0,1,.76.76v8.234H28.21c.451-.486.911-1,1.386-1.544a.646.646,0,0,0,0-.848,52.7,52.7,0,0,0-5.583-5.583.646.646,0,0,0-.848,0,52.7,52.7,0,0,0-5.583,5.583.646.646,0,0,0,0,.848c.476.547.935,1.058,1.386,1.544H14.531c.451-.486.911-1,1.386-1.544a.646.646,0,0,0,0-.848,52.721,52.721,0,0,0-5.583-5.583.646.646,0,0,0-.848,0A52.721,52.721,0,0,0,3.9,64.166a.646.646,0,0,0,0,.848c.476.547.935,1.058,1.386,1.544H3.021Zm17.731,8.234c-.595-.61-1.2-1.259-1.822-1.968a50.45,50.45,0,0,1,4.66-4.66,50.452,50.452,0,0,1,4.66,4.66c-.627.709-1.228,1.358-1.822,1.968Zm-13.679,0c-.595-.61-1.2-1.259-1.822-1.968a50.462,50.462,0,0,1,4.66-4.66,50.462,50.462,0,0,1,4.66,4.66c-.627.709-1.228,1.358-1.822,1.968Zm23.8,10.335H2.631V74.351H30.87Zm1.338-3.834H1.292V68.594a.745.745,0,0,1,.744-.744H31.464a.745.745,0,0,1,.744.744v4.465Z" transform="translate(0 -56.272)" fill="#fff"/>
</svg>
