<svg xmlns="http://www.w3.org/2000/svg" width="21.867" height="14.065" viewBox="0 0 21.867 14.065">
    <g id="Group_8321" data-name="Group 8321" transform="translate(0.1 -92.084)">
        <g id="Group_8316" data-name="Group 8316" transform="translate(6.106 92.184)">
            <g id="Group_8315" data-name="Group 8315" transform="translate(0 0)">
                <path id="Path_25623" data-name="Path 25623" d="M152.752,99.995l-1.844-.82a.361.361,0,0,1-.214-.33v-.506a2.688,2.688,0,0,0,1.018-2.106V95.52a.658.658,0,0,0,.339-.575v-.069a2.7,2.7,0,0,0-2.692-2.692h-.678a2.7,2.7,0,0,0-2.692,2.692V95.5a.666.666,0,0,0,.253.533.619.619,0,0,0,.086.056v.14a2.688,2.688,0,0,0,1.018,2.106v.507a.361.361,0,0,1-.214.33l-1.844.82a1.676,1.676,0,0,0-.994,1.53v4.207a.317.317,0,1,0,.635,0v-4.207a1.04,1.04,0,0,1,.006-.109l.85.85a.7.7,0,0,1,.205.5v2.971a.317.317,0,0,0,.635,0v-2.971a1.326,1.326,0,0,0-.391-.944l-1.013-1.013a1.037,1.037,0,0,1,.325-.229l1.813-.806,1.345,1.345v4.618a.317.317,0,1,0,.635,0v-4.618l1.345-1.345,1.813.806a1.036,1.036,0,0,1,.325.229l-1.013,1.013a1.326,1.326,0,0,0-.391.944v2.971a.317.317,0,0,0,.635,0v-2.971a.7.7,0,0,1,.205-.5l.85-.85a1.039,1.039,0,0,1,.006.109v4.207a.317.317,0,1,0,.635,0v-4.207A1.676,1.676,0,0,0,152.752,99.995Zm-3.733.539-1.18-1.18a.994.994,0,0,0,.14-.508v-.129a2.69,2.69,0,0,0,2.079,0v.129a.994.994,0,0,0,.14.508Zm0-2.243a2.06,2.06,0,0,1-2.057-2.057V96.09a1.877,1.877,0,0,0,.576-.374.317.317,0,0,0-.431-.466,1.14,1.14,0,0,1-.471.281l-.008,0a.065.065,0,0,1-.005-.029v-.628a2.06,2.06,0,0,1,2.057-2.057h.678a2.06,2.06,0,0,1,2.057,2.057v.069a.02.02,0,0,1-.014.021,3.359,3.359,0,0,1-3.175-.654.317.317,0,0,0-.449.449,3.974,3.974,0,0,0,3.3.9v.574A2.06,2.06,0,0,1,149.019,98.29Z" transform="translate(-144.292 -92.184)" fill="#85cb3f" stroke="#85cb3f" stroke-width="0.2"/>
            </g>
        </g>
        <g id="Group_8318" data-name="Group 8318" transform="translate(0 93.88)">
            <g id="Group_8317" data-name="Group 8317" transform="translate(0 0)">
                <path id="Path_25624" data-name="Path 25624" d="M5.723,136.653v-.679A2.352,2.352,0,0,0,4.645,134,1.335,1.335,0,1,0,2.1,134a2.352,2.352,0,0,0-1.079,1.976v.678a2.352,2.352,0,0,0,1.018,1.936v.7a.359.359,0,0,1-.2.323l-1.1.549A1.328,1.328,0,0,0,0,141.353v2.763a.317.317,0,1,0,.635,0V141.49l.517.517a.7.7,0,0,1,.205.5v1.614a.317.317,0,1,0,.635,0V142.5a1.326,1.326,0,0,0-.391-.944l-.72-.72-.011-.01a.708.708,0,0,1,.152-.1l1.1-.549a1.01,1.01,0,0,0,.157-.1l.776.776v3.261a.317.317,0,0,0,.635,0v-3.261l.776-.776a1.006,1.006,0,0,0,.157.1l.3.151a.317.317,0,1,0,.284-.568l-.3-.151a.359.359,0,0,1-.2-.323v-.7A2.352,2.352,0,0,0,5.723,136.653ZM3.37,132.9a.7.7,0,0,1,.7.7.711.711,0,0,1-.011.125,2.353,2.353,0,0,0-1.377,0,.7.7,0,0,1,.688-.825Zm0,1.357a1.72,1.72,0,0,1,1.718,1.718v.115a1.992,1.992,0,0,1-2.143-.645.317.317,0,0,0-.478-.034,2.076,2.076,0,0,1-.814.52A1.72,1.72,0,0,1,3.37,134.257Zm0,6.018-.733-.733a1,1,0,0,0,.033-.255V138.9a2.357,2.357,0,0,0,1.4,0v.387a1,1,0,0,0,.033.255Zm0-1.9a1.72,1.72,0,0,1-1.718-1.718v-.066a2.545,2.545,0,0,0,1.02-.508,2.863,2.863,0,0,0,.589.428,2.524,2.524,0,0,0,1.213.313,2.659,2.659,0,0,0,.612-.073A1.72,1.72,0,0,1,3.37,138.371Z" transform="translate(0 -132.265)" fill="#85cb3f" stroke="#85cb3f" stroke-width="0.2"/>
            </g>
        </g>
        <g id="Group_8320" data-name="Group 8320" transform="translate(15.265 94.559)">
            <g id="Group_8319" data-name="Group 8319" transform="translate(0 0)">
                <path id="Path_25625" data-name="Path 25625" d="M366.39,154.835l-1.776-.888a.359.359,0,0,1-.2-.323v-.45a2.009,2.009,0,0,0,.678-1.505v-.361h.022a.317.317,0,0,0,.317-.317v-.678a2.016,2.016,0,0,0-2.014-2.014h-.678a2.016,2.016,0,0,0-2.014,2.014v.678a.317.317,0,0,0,.317.317h.022v.362a2.009,2.009,0,0,0,.679,1.506v.45a.359.359,0,0,1-.2.323.317.317,0,1,0,.284.568,1.011,1.011,0,0,0,.157-.1l.776.776v4.279a.317.317,0,1,0,.635,0v-4.279l.776-.776a1.006,1.006,0,0,0,.157.1l1.719.859-.521.521a1.327,1.327,0,0,0-.391.944v2.632a.317.317,0,1,0,.635,0v-2.632a.7.7,0,0,1,.205-.5l.494-.494a.706.706,0,0,1,.023.179v3.442a.317.317,0,1,0,.635,0v-3.442A1.328,1.328,0,0,0,366.39,154.835Zm-5.029-4.227v-.3h0a1.38,1.38,0,0,1,1.379-1.379h.678a1.38,1.38,0,0,1,1.379,1.379v.353a4.855,4.855,0,0,1-2.22-.617.317.317,0,0,0-.4.04A2.079,2.079,0,0,1,361.361,150.607Zm1.718,4-.733-.733a1.007,1.007,0,0,0,.033-.255v-.068a2.012,2.012,0,0,0,1.4,0v.068a1,1,0,0,0,.033.255Zm0-1.565a1.38,1.38,0,0,1-1.379-1.379v-.512h0a2.686,2.686,0,0,0,.745-.455,5.639,5.639,0,0,0,2.013.572v.394A1.38,1.38,0,0,1,363.079,153.047Z" transform="translate(-360.726 -148.298)" fill="#85cb3f" stroke="#85cb3f" stroke-width="0.2"/>
            </g>
        </g>
    </g>
</svg>