<svg id="camera" class="fill" xmlns="http://www.w3.org/2000/svg" width="21.925" height="16.365" viewBox="0 0 21.925 16.365">
  <g transform="translate(-32 -14.967)">
    <g transform="translate(32 14.967)">
      <path id="Контур_24065" data-name="Контур 24065" d="M53.6,22.43l-14.843-7.4a.591.591,0,0,0-.793.265L34.8,21.644a.591.591,0,0,0,.265.793l4.432,2.21-.393.789a.591.591,0,0,0,.265.793l.14.07-.764,1.36h-4.5A2.518,2.518,0,0,0,32,26.294v5.037a2.518,2.518,0,0,0,2.209-1.308h5.224a1.183,1.183,0,0,0,1.031-.6l1.159-2.065.2.1a.591.591,0,0,0,.793-.265l.393-.789,3.311,1.651a.591.591,0,0,0,.6-.039l.914-.618,1.632.814a.591.591,0,0,0,.793-.265l1.671-3.35,1.732-1.14A.591.591,0,0,0,53.6,22.43Z" transform="translate(-32 -14.967)" fill="#324655"/>
    </g>
  </g>
</svg>
