<svg xmlns="http://www.w3.org/2000/svg" xmlns:xlink="http://www.w3.org/1999/xlink" width="20" height="19.855" viewBox="0 0 20 19.855">
    <defs>
        <clipPath id="clip-path">
            <rect width="20" height="19.855" fill="none"/>
        </clipPath>
    </defs>
    <g id="Repeat_Grid_168" data-name="Repeat Grid 168" clip-path="url(#clip-path)">
        <g id="Group_7870" data-name="Group 7870" transform="translate(-44 -4.688)">
            <g id="Layer_2" data-name="Layer 2" transform="translate(44 4.688)">
                <g id="Group_7789" data-name="Group 7789" transform="translate(0 0)">
                    <path id="Path_25405" data-name="Path 25405" d="M297.825,426.179c-.165.041-.333.078-.5.108a.8.8,0,0,0,.293,1.581c.2-.037.4-.08.6-.129a.8.8,0,0,0-.389-1.56Z" transform="translate(-285.804 -408.035)" fill="#fff"/>
                    <path id="Path_25406" data-name="Path 25406" d="M456.693,140.794a.8.8,0,0,0,1.527-.505c-.064-.192-.134-.385-.209-.572a.8.8,0,1,0-1.493.6C456.581,140.471,456.64,140.632,456.693,140.794Z" transform="translate(-438.727 -133.427)" fill="#fff"/>
                    <path id="Path_25407" data-name="Path 25407" d="M365.7,397.045c-.142.094-.288.184-.436.269a.8.8,0,1,0,.8,1.393c.175-.1.35-.209.519-.32a.8.8,0,0,0-.886-1.342Z" transform="translate(-351.072 -380.048)" fill="#fff"/>
                    <path id="Path_25408" data-name="Path 25408" d="M473.242,211.084a.8.8,0,1,0-1.607.063c.007.17.008.342,0,.511a.8.8,0,1,0,1.608.036C473.251,211.491,473.25,211.286,473.242,211.084Z" transform="translate(-453.249 -201.471)" fill="#fff"/>
                    <path id="Path_25409" data-name="Path 25409" d="M422.393,347.23a.8.8,0,0,0-1.126.161c-.1.136-.21.27-.32.4a.8.8,0,0,0,.091,1.133c.019.016.039.031.059.045a.8.8,0,0,0,1.074-.136c.131-.154.26-.315.382-.477A.8.8,0,0,0,422.393,347.23Z" transform="translate(-404.558 -332.349)" fill="#fff"/>
                    <path id="Path_25410" data-name="Path 25410" d="M458.98,282.389a.8.8,0,0,0-1.008.527c-.051.162-.107.325-.168.484a.8.8,0,0,0,1.5.573c.072-.189.139-.383.2-.575A.8.8,0,0,0,458.98,282.389Z" transform="translate(-439.963 -270.414)" fill="#fff"/>
                    <path id="Path_25411" data-name="Path 25411" d="M52.513,22.947a8.3,8.3,0,0,1-2.062-.655l-.023-.012c-.154-.073-.308-.15-.457-.231h0a8.577,8.577,0,0,1-.8-.5A8.39,8.39,0,0,1,49.2,7.8l.029-.02a8.4,8.4,0,0,1,9.419-.076l-.628.908c-.175.253-.067.437.239.409l2.729-.244a.45.45,0,0,0,.407-.588l-.733-2.64c-.082-.3-.292-.331-.467-.079l-.63.91a9.929,9.929,0,0,0-7.276-1.547q-.386.067-.761.163h-.005l-.029.008A9.914,9.914,0,0,0,46,8.693c-.012.014-.023.027-.034.042-.046.061-.091.124-.135.187-.072.1-.144.209-.212.314-.009.013-.015.026-.023.039a9.913,9.913,0,0,0-1.584,5.847c0,.007,0,.014,0,.021.009.2.025.406.047.607,0,.013,0,.025.006.038.022.2.051.405.086.608a9.923,9.923,0,0,0,2.8,5.381l.01.011,0,0a10.131,10.131,0,0,0,1.281,1.07,9.914,9.914,0,0,0,3.987,1.668.8.8,0,0,0,.284-1.583Z" transform="translate(-44 -4.688)" fill="#fff"/>
                    <path id="Path_25412" data-name="Path 25412" d="M250.638,86.2a.651.651,0,0,0-.651.651V93.33l5.927,3.064a.65.65,0,0,0,.6-1.156l-5.224-2.7V86.849A.65.65,0,0,0,250.638,86.2Z" transform="translate(-241.131 -82.694)" fill="#fff"/>
                </g>
            </g>
        </g>
    </g>
</svg>