<svg id="Group_7597" data-name="Group 7597" xmlns="http://www.w3.org/2000/svg" width="12.817" height="15.057" viewBox="0 0 12.817 15.057">
    <g id="Group_7550" data-name="Group 7550" transform="translate(0)">
        <path id="Path_25289" data-name="Path 25289" d="M12.609,23.429a.712.712,0,0,0-.952-.05,3.919,3.919,0,0,1-2.477.881A3.982,3.982,0,0,1,5.2,20.282,3.94,3.94,0,0,1,6.2,17.667a.585.585,0,0,0-.013-.79l-.406-.43a.572.572,0,0,0-.836,0A5.552,5.552,0,0,0,4.1,17.641a5.722,5.722,0,0,0,8.694,7.081.713.713,0,0,0,.054-1.056Z" transform="translate(-3.452 -10.991)" fill="#85cb3f"/>
        <path id="Path_25290" data-name="Path 25290" d="M12.693,2.8a1.4,1.4,0,1,0-1.4-1.4A1.4,1.4,0,0,0,12.693,2.8Z" transform="translate(-8.75)" fill="#85cb3f"/>
        <path id="Path_25291" data-name="Path 25291" d="M23.72,20.762l-.878-4.806a1.136,1.136,0,0,0-.477-.732,1.129,1.129,0,0,0-.856-.174l-4.007.8a.226.226,0,0,1-.042,0,.213.213,0,0,1-.208-.17l-.33-1.627,2.782-.475A.8.8,0,0,0,19.434,12l-2.832.483-.363-1.791a.875.875,0,0,0-.86-.718.9.9,0,0,0-.158.014.876.876,0,0,0-.7,1.02l1.159,5.84a1.128,1.128,0,0,0,1.108.909A1.083,1.083,0,0,0,17,17.736l4.016-.8a.213.213,0,0,1,.162.032.216.216,0,0,1,.09.138L22,21.077a.874.874,0,0,0,.86.718h0a.9.9,0,0,0,.158-.014.877.877,0,0,0,.7-1.019Z" transform="translate(-10.917 -6.738)" fill="#85cb3f"/>
    </g>
</svg>
