
<svg xmlns="http://www.w3.org/2000/svg" width="12.722" height="15.827" viewBox="0 0 12.722 15.827">
    <g id="Group_8117" data-name="Group 8117" transform="translate(-4.888)">
        <path id="Path_25315" data-name="Path 25315" d="M17.61,13.127a2.7,2.7,0,0,1-2.7,2.7H7.588a2.7,2.7,0,0,1-2.7-2.7,1.112,1.112,0,1,1,2.223,0,.477.477,0,0,0,.476.476H14.91a.477.477,0,0,0,.476-.476,1.112,1.112,0,1,1,2.223,0ZM10.463,10.9a1.112,1.112,0,0,0,1.572,0l3.282-3.282a1.112,1.112,0,0,0-1.572-1.572L12.361,7.425V1.112a1.112,1.112,0,0,0-2.223,0V7.425L8.753,6.041A1.112,1.112,0,0,0,7.181,7.613Z" fill="#85cb3f"/>
    </g>
</svg>