<svg xmlns="http://www.w3.org/2000/svg" width="17.598" height="17.593" viewBox="0 0 17.598 17.593">
    <g id="Group_7598" data-name="Group 7598" transform="translate(0.25 0.25)">
        <path id="Path_25293" data-name="Path 25293" d="M-563.067-88.712l-2.654-3.568v-2.887a1.861,1.861,0,0,0-.82-1.542,1.731,1.731,0,0,0,.691-1.384v-.172A1.735,1.735,0,0,0-567.582-100a1.734,1.734,0,0,0-1.732,1.733v.172a1.731,1.731,0,0,0,.691,1.384,1.861,1.861,0,0,0-.82,1.542v1.436l-2.044.74a1,1,0,0,0-.6,1.276h-.2a.334.334,0,0,0-.316.226l-.356,1.039h-2.266v-3.772a.334.334,0,0,0-.334-.334,4.445,4.445,0,0,0-4.44,4.44,4.448,4.448,0,0,0,3.446,4.328l-.533.533a1.248,1.248,0,0,0-.621-.165,1.259,1.259,0,0,0-1.257,1.257,1.259,1.259,0,0,0,1.257,1.257,1.259,1.259,0,0,0,1.258-1.257,1.251,1.251,0,0,0-.165-.621l.9-.9c.053,0,.106,0,.159,0s.106,0,.159,0l.9.9a1.248,1.248,0,0,0-.165.621,1.259,1.259,0,0,0,1.257,1.257,1.259,1.259,0,0,0,1.258-1.257,1.259,1.259,0,0,0-1.258-1.257,1.248,1.248,0,0,0-.621.165l-.533-.533a4.448,4.448,0,0,0,3.446-4.328.334.334,0,0,0-.334-.334h-.8l.2-.6h.909l.032,0a1,1,0,0,0,.3-.058l2.7-.979a1,1,0,0,0,.66-.942v-1.726a.334.334,0,0,0-.334-.334.334.334,0,0,0-.334.334v1.726a.335.335,0,0,1-.22.314l-2.7.979a.332.332,0,0,1-.114.02.335.335,0,0,1-.314-.22.334.334,0,0,1,.2-.428l2.264-.82a.334.334,0,0,0,.22-.314v-1.67a1.2,1.2,0,0,1,1.193-1.194,1.2,1.2,0,0,1,1.193,1.194v3a.335.335,0,0,0,.066.2l2.72,3.657a.15.15,0,0,1,.026.123.15.15,0,0,1-.076.1l-.182.1a10.38,10.38,0,0,1-4.927,1.248h-.015v-2.67a.334.334,0,0,0-.334-.334.334.334,0,0,0-.334.334v3a.334.334,0,0,0,.334.334h.389v2.113a1.058,1.058,0,0,0,1.057,1.057,1.058,1.058,0,0,0,1.057-1.057V-86.29a11.04,11.04,0,0,0,3.09-1.114l.182-.1a.819.819,0,0,0,.41-.544A.819.819,0,0,0-563.067-88.712Zm-14.641,5.139a.591.591,0,0,1-.59-.59.59.59,0,0,1,.59-.59.59.59,0,0,1,.59.59A.59.59,0,0,1-577.708-83.573Zm4.885-.59a.591.591,0,0,1-.59.59.59.59,0,0,1-.59-.59.59.59,0,0,1,.59-.59A.59.59,0,0,1-572.823-84.163Zm-3.071-9.711v3.424h-3.424A3.779,3.779,0,0,1-575.894-93.874Zm.334,7.53a3.778,3.778,0,0,1-3.758-3.439h.973a2.785,2.785,0,0,0,1.318,2.057.333.333,0,0,0,.174.049.334.334,0,0,0,.285-.159.334.334,0,0,0-.11-.459,2.124,2.124,0,0,1-.994-1.488h5.869A3.778,3.778,0,0,1-575.56-86.344Zm6.913-11.749v-.172a1.066,1.066,0,0,1,1.065-1.065,1.066,1.066,0,0,1,1.065,1.065v.172a1.066,1.066,0,0,1-1.065,1.065A1.066,1.066,0,0,1-568.647-98.093Zm1.373,14.131a.39.39,0,0,1-.389.389.39.39,0,0,1-.389-.389V-86.1q.391-.025.779-.079Z" transform="translate(580 99.998)" fill="#85cb3f" stroke="#85cb3f" stroke-width="0.5"/>
    </g>
</svg>