<svg id="food-outlets" class="fill" xmlns="http://www.w3.org/2000/svg" width="34.5" height="23.503" viewBox="0 0 34.5 23.503">
  <g transform="translate(202.987 -170.342)">
    <path d="M-152.493,182.324A11.7,11.7,0,0,1-164.131,194a11.785,11.785,0,0,1-11.655-11.7,11.778,11.778,0,0,1,11.64-11.64A11.7,11.7,0,0,1-152.493,182.324Zm-11.641,10.536a10.556,10.556,0,0,0,10.55-10.517A10.555,10.555,0,0,0-164.11,171.8a10.549,10.549,0,0,0-10.54,10.517A10.552,10.552,0,0,0-164.134,192.86Z" transform="translate(-21.618 -0.253)" fill="#fff"/>
    <path d="M-201.414,175.5v-3.033a2.5,2.5,0,0,1,.021-.839c.109-.287.328-.689.564-.738.477-.1.545.343.547.721.006,1.1-.009,2.205.015,3.308a2.343,2.343,0,0,0,.216.654l.307-.072v-2.823c0-.256-.013-.514,0-.769.026-.434-.148-1.051.558-1.04.639.01.511.589.516,1,.013.923,0,1.846,0,2.769v.757c.567.044.587.043.58-.437-.016-1.051-.057-2.1-.081-3.153a1.371,1.371,0,0,1,.047-.677.936.936,0,0,1,.6-.43c.136-.013.422.3.439.488.066.739.055,1.484.068,2.228q.022,1.346.036,2.692a2.379,2.379,0,0,1-1.713,2.531.761.761,0,0,0-.624.93c.036.459,0,.923.011,1.384s-.2,1.034.533,1.245c.132.038.209.448.223.691.164,2.995.334,5.99.452,8.986a1.963,1.963,0,0,1-2.028,2.059,1.723,1.723,0,0,1-1.82-1.936c.127-2.737.37-5.468.571-8.2.024-.332.062-.664.118-.992.034-.2.07-.523.18-.559.927-.3.573-1.051.63-1.654.019-.2-.02-.413.007-.615a1.058,1.058,0,0,0-.949-1.386,2.115,2.115,0,0,1-1.587-2.194c-.018-1.692-.029-3.385.017-5.076.007-.265.3-.712.513-.745.509-.08.575.361.572.78-.006,1.179-.008,2.359,0,3.538a3.885,3.885,0,0,0,.111.643Zm2.187,12.339h-.147c-.078-1.406-.144-2.813-.247-4.217-.013-.171-.216-.328-.331-.492-.1.149-.255.288-.279.448-.1.632-.169,1.269-.215,1.907-.153,2.093-.3,4.187-.425,6.282-.03.5.058,1.018.727,1.055.57.032.918-.4.918-1.068Q-199.229,189.8-199.227,187.843Zm-2.523-11.117a1.7,1.7,0,0,0,1.857,1.054,1.645,1.645,0,0,0,1.7-1.054Z" transform="translate(0 -0.183)" fill="#fff"/>
    <path d="M-57.374,184.085c-1.963-.27-2.19-.523-2.112-2.485A37.205,37.205,0,0,1-57.3,171.332a.17.17,0,0,1,.03-.07q.492-.462.987-.92a4.272,4.272,0,0,1,.689,1.171,13.436,13.436,0,0,1,.21,2.295c.116,3.178.17,6.359.329,9.535.138,2.766.383,5.526.59,8.289a1.854,1.854,0,0,1-.855,1.914,1.673,1.673,0,0,1-2.668-1.368c.026-1.84.238-3.677.379-5.515C-57.542,185.8-57.452,184.94-57.374,184.085Zm.829-10.973a30.328,30.328,0,0,0-1.857,8.6c-.064,1.177.012,1.191,1.265,1.172.6-.009.936.2.884.848s-.084,1.279-.14,1.917c-.176,2.016-.369,4.031-.53,6.048-.036.453-.055,1.019.624,1,.627-.019.746-.465.716-1.035-.259-4.913-.5-9.828-.747-14.742C-56.393,175.649-56.472,174.381-56.545,173.112Z" transform="translate(-114.033 0)" fill="#fff"/>
    <path d="M-151.736,203.2a8.431,8.431,0,0,1-8.442-8.469,8.43,8.43,0,0,1,8.522-8.467,8.476,8.476,0,0,1,8.415,8.508A8.475,8.475,0,0,1-151.736,203.2Zm.062-15.854a7.441,7.441,0,0,0-7.422,7.3,7.433,7.433,0,0,0,7.332,7.47,7.424,7.424,0,0,0,7.413-7.38A7.426,7.426,0,0,0-151.674,187.346Z" transform="translate(-34.021 -12.654)" fill="#fff"/>
  </g>
</svg>
