<svg xmlns="http://www.w3.org/2000/svg" width="117.271" height="111" viewBox="0 0 117.271 111">
  <g id="Сгруппировать_8310" data-name="Сгруппировать 8310" transform="translate(-278.229 -251)">
    <circle id="Эллипс_5924" data-name="Эллипс 5924" cx="37.5" cy="37.5" r="37.5" transform="translate(278.229 287)" fill="#85cb3f"/>
    <g id="Application" transform="translate(285 251)">
      <path id="Контур_25611" data-name="Контур 25611" d="M212,309h25.783v3.683H212Z" transform="translate(-169.642 -231.65)" fill="#3d5567"/>
      <path id="Контур_25612" data-name="Контур 25612" d="M180,309h3.683v3.683H180Z" transform="translate(-145.008 -231.65)" fill="#3d5567"/>
      <path id="Контур_25613" data-name="Контур 25613" d="M136.658-19.633H110.875v-1.842A5.542,5.542,0,0,0,105.35-27H61.15a5.542,5.542,0,0,0-5.525,5.525v7.367H29.842A1.842,1.842,0,0,0,28-12.267v22.1a1.842,1.842,0,0,0,1.842,1.842H55.625v3.683a9.208,9.208,0,0,0-9.208,9.208V32.1L50.1,70.682V81.658A1.842,1.842,0,0,0,51.942,83.5H92.458A1.842,1.842,0,0,0,94.3,81.658V71.2l6.851-9.8h4.2a5.542,5.542,0,0,0,5.525-5.525V54.033h1.842a7.339,7.339,0,0,0,4.825-12.892,7.276,7.276,0,0,0,0-11.05,7.276,7.276,0,0,0,0-11.05A7.339,7.339,0,0,0,112.717,6.15h-1.842V2.467h25.783A1.842,1.842,0,0,0,138.5.625V-17.792A1.842,1.842,0,0,0,136.658-19.633ZM97.468-23.317,96.9-21.033a1.842,1.842,0,0,1-1.786,1.4H71.39a1.842,1.842,0,0,1-1.786-1.4l-.571-2.284ZM31.683,7.992V-10.425h33.15V7.992ZM90.617,79.817H53.783V72.45H90.617Zm.884-11.05H53.618L50.1,31.933V24.567a5.542,5.542,0,0,1,5.525-5.525H68.517a5.525,5.525,0,0,1,0,11.05H57.467a1.842,1.842,0,0,0-1.842,1.842V55.875A5.542,5.542,0,0,0,61.15,61.4H96.657Zm15.691-12.892a1.842,1.842,0,0,1-1.842,1.842H61.15a1.842,1.842,0,0,1-1.842-1.842v-22.1h9.208a9.208,9.208,0,0,0,0-18.417H59.308V11.675h7.367a1.842,1.842,0,0,0,1.842-1.842v-22.1a1.842,1.842,0,0,0-1.842-1.842H59.308v-7.367a1.842,1.842,0,0,1,1.842-1.842h4.089l.792,3.186A5.525,5.525,0,0,0,71.39-15.95H95.11a5.525,5.525,0,0,0,5.359-4.181l.792-3.186h4.089a1.842,1.842,0,0,1,1.842,1.842v1.842h-3.683a1.842,1.842,0,0,0-1.842,1.842V.625a1.842,1.842,0,0,0,1.842,1.842h3.683V6.15H105.35a7.339,7.339,0,0,0-4.825,12.892,7.276,7.276,0,0,0,0,11.05,7.276,7.276,0,0,0,0,11.05,7.339,7.339,0,0,0,4.825,12.892h1.842Zm5.525-5.525H105.35a3.683,3.683,0,1,1,0-7.367h7.367a3.683,3.683,0,0,1,0,7.367Zm0-11.05H105.35a3.683,3.683,0,1,1,0-7.367h7.367a3.683,3.683,0,0,1,0,7.367Zm0-11.05H105.35a3.683,3.683,0,1,1,0-7.367h7.367a3.683,3.683,0,1,1,0,7.367Zm0-18.417a3.683,3.683,0,1,1,0,7.367H105.35a3.683,3.683,0,1,1,0-7.367Zm22.1-11.05H105.35V-15.95h29.467Z" transform="translate(-28 27)" fill="#3d5567"/>
      <path id="Контур_25614" data-name="Контур 25614" d="M60,61h3.683v3.683H60Z" transform="translate(-52.633 -40.742)" fill="#3d5567"/>
      <path id="Контур_25615" data-name="Контур 25615" d="M92,61h18.417v3.683H92Z" transform="translate(-77.267 -40.742)" fill="#3d5567"/>
      <path id="Контур_25616" data-name="Контур 25616" d="M60,93H85.783v3.683H60Z" transform="translate(-52.633 -65.375)" fill="#3d5567"/>
      <path id="Контур_25617" data-name="Контур 25617" d="M380,45h7.367v3.683H380Z" transform="translate(-298.967 -28.425)" fill="#3d5567"/>
      <path id="Контур_25618" data-name="Контур 25618" d="M428,45h11.05v3.683H428Z" transform="translate(-335.917 -28.425)" fill="#3d5567"/>
    </g>
  </g>
</svg>
