<svg xmlns="http://www.w3.org/2000/svg" width="66.597" height="65.17" viewBox="0 0 66.597 65.17">
  <g id="Icon_feather-settings" data-name="Icon feather-settings" transform="translate(-0.5 -0.5)">
    <path id="Контур_25494" data-name="Контур 25494" d="M31.117,22.114A8.811,8.811,0,1,1,22.309,13.5,8.713,8.713,0,0,1,31.117,22.114Z" transform="translate(11.49 10.971)" fill="none" stroke="#3d5567" stroke-linecap="round" stroke-linejoin="round" stroke-width="2"/>
    <path id="Контур_25495" data-name="Контур 25495" d="M55.526,41.7a4.66,4.66,0,0,0,.969,5.226l.176.172a5.654,5.654,0,0,1,0,8.126,5.967,5.967,0,0,1-8.309,0l-.176-.172a4.926,4.926,0,0,0-5.344-.948,4.737,4.737,0,0,0-2.936,4.336v.488a5.874,5.874,0,0,1-11.745,0v-.258a4.747,4.747,0,0,0-3.171-4.336,4.926,4.926,0,0,0-5.344.948l-.176.172a5.967,5.967,0,0,1-8.309,0,5.654,5.654,0,0,1,0-8.126l.176-.172a4.66,4.66,0,0,0,.969-5.226,4.848,4.848,0,0,0-4.434-2.871h-.5a5.744,5.744,0,1,1,0-11.485h.264a4.838,4.838,0,0,0,4.434-3.1,4.66,4.66,0,0,0-.969-5.226l-.176-.172a5.654,5.654,0,0,1,0-8.126,5.967,5.967,0,0,1,8.309,0l.176.172a4.926,4.926,0,0,0,5.344.948h.235a4.737,4.737,0,0,0,2.936-4.336V7.243a5.874,5.874,0,0,1,11.745,0V7.5a4.737,4.737,0,0,0,2.936,4.336,4.926,4.926,0,0,0,5.344-.948l.176-.172a5.967,5.967,0,0,1,8.309,0,5.654,5.654,0,0,1,0,8.126l-.176.172a4.66,4.66,0,0,0-.969,5.226v.23a4.848,4.848,0,0,0,4.434,2.871h.5a5.744,5.744,0,1,1,0,11.485H59.96A4.848,4.848,0,0,0,55.526,41.7Z" transform="translate(0)" fill="none" stroke="#3d5567" stroke-linecap="round" stroke-linejoin="round" stroke-width="2"/>
  </g>
</svg>
