<svg xmlns="http://www.w3.org/2000/svg" width="31.237" height="21.983" viewBox="0 0 31.237 21.983">
    <path id="Path_25404" data-name="Path 25404" d="M30.623,84.821H25.255c.326-7.27,5.075-13.425,5.125-13.488a.614.614,0,0,0-.806-.9,19.62,19.62,0,0,0-7.353,9.2c-.218.521-.41,1.025-.579,1.5a22.973,22.973,0,0,1,2.319-9.477.614.614,0,0,0-.881-.8,10.848,10.848,0,0,0-3.117,3.181,46.383,46.383,0,0,1,2.055-9.16.614.614,0,0,0-.978-.666,13.887,13.887,0,0,0-3.82,6.346,31.266,31.266,0,0,0-1.039,4.092,12.085,12.085,0,0,0-4.111-4.764.614.614,0,0,0-.881.8A24.835,24.835,0,0,1,13.68,81.112c-.2-.588-.436-1.217-.71-1.87-1.279-3.054-3.679-7.235-7.844-9.81a.614.614,0,0,0-.806.9A30.041,30.041,0,0,1,9.5,82.067c-.3-.6-.657-1.26-1.055-1.939-2.11-3.6-4.389-5.944-6.774-6.978a.614.614,0,0,0-.744.919c1.478,2.076,5.118,7.809,5.258,10.751H.614a.614.614,0,0,0,0,1.228H30.623a.614.614,0,0,0,0-1.228Zm-7.257-4.75a20.739,20.739,0,0,1,3.969-6.236c-.193.353-.391.73-.59,1.13a25.177,25.177,0,0,0-2.718,9.856H21.878A26.593,26.593,0,0,1,23.366,80.071Zm-1.6-6.4A26.358,26.358,0,0,0,20.43,80.7a30.01,30.01,0,0,0,.041,4.117H18.388A23.965,23.965,0,0,1,19.414,78.1,12.968,12.968,0,0,1,21.761,73.666Zm-1.774-6.29c-.71,2.619-1.545,6.433-1.219,8.932q-.285.68-.523,1.421c-.177.553-.327,1.109-.453,1.66a22.039,22.039,0,0,0-.573-2.179c-.045-.139-.091-.276-.138-.413C17.358,74.693,18.119,70.444,19.987,67.376Zm-6.6,5.278a13.737,13.737,0,0,1,2.664,4.93,25.7,25.7,0,0,1,1.1,7.236H14.834a31.942,31.942,0,0,0,.048-4.441A27.962,27.962,0,0,0,13.386,72.655Zm-6.034.122a22,22,0,0,1,4.473,6.91,28.414,28.414,0,0,1,1.6,5.134H11.039a26.845,26.845,0,0,0-2.9-10.56C7.871,73.727,7.606,73.231,7.352,72.777ZM4.8,77.911c-.414-.736-.83-1.43-1.213-2.044,2.982,2.667,5.078,7.154,5.839,8.954H7.414C7.348,83.207,6.471,80.888,4.8,77.911Z" transform="translate(0 -64.066)" fill="#fff"/>
</svg>
