<svg xmlns="http://www.w3.org/2000/svg" width="44" height="44" viewBox="0 0 44 44">
  <g id="Сгруппировать_8320" data-name="Сгруппировать 8320" transform="translate(-1051 -741)">
    <circle id="Эллипс_5910" data-name="Эллипс 5910" cx="22" cy="22" r="22" transform="translate(1051 741)" fill="#85cb3f"/>
    <g id="Сгруппировать_8194" data-name="Сгруппировать 8194" transform="translate(863.875 598.05)">
      <path id="Контур_6226" data-name="Контур 6226" d="M199.123,166.851s9.6,12.049,20.25,0v-.546s-9.6-12.05-20.25,0Z" fill="none" stroke="#fbfdff" stroke-linecap="round" stroke-linejoin="round" stroke-width="1.8"/>
      <path id="Вычитание_2" data-name="Вычитание 2" d="M17491.664-7899.976a3.543,3.543,0,0,1-3.539-3.539,3.541,3.541,0,0,1,3.539-3.534,3.539,3.539,0,0,1,3.535,3.534A3.541,3.541,0,0,1,17491.664-7899.976Zm-1.094-5.936a1.088,1.088,0,0,0-1.084,1.089,1.088,1.088,0,0,0,1.084,1.089,1.09,1.09,0,0,0,1.09-1.089A1.09,1.09,0,0,0,17490.57-7905.912Z" transform="translate(-17282.412 8069.913)" fill="#fff"/>
    </g>
  </g>
</svg>
