<svg id="house-of-culture" class="fill" xmlns="http://www.w3.org/2000/svg" width="28.614" height="26.344" viewBox="0 0 28.614 26.344">
  <path d="M28.464,27.282,14.449,19.5a.292.292,0,0,0-.283,0L.151,27.27a.292.292,0,0,0,.141.547H1.558v1.265a.292.292,0,0,0,.292.292H3.115v1.29a.292.292,0,0,0,.292.292h.747v9.593H3.407a.292.292,0,0,0-.292.292v1.266H2.368a.292.292,0,0,0-.292.292v1.265H1.849a.292.292,0,0,0-.292.292v1.557a.292.292,0,0,0,.292.292H26.765a.292.292,0,0,0,.292-.292V43.955a.292.292,0,0,0-.292-.292h-.227V42.4a.292.292,0,0,0-.292-.292H25.5V40.84a.292.292,0,0,0-.292-.292h-.747V30.955h.747a.292.292,0,0,0,.292-.292v-1.29h1.266a.292.292,0,0,0,.292-.292V27.819l1.263.01h0a.292.292,0,0,0,.142-.546ZM8.825,29.373v1.29a.292.292,0,0,0,.292.292h.747v9.593H9.116a.292.292,0,0,0-.292.292v1.266H8.37V40.84a.292.292,0,0,0-.292-.292H7.332V30.955h.747a.292.292,0,0,0,.292-.292v-1.29ZM19.207,42.106H15.118v-.974h4.089v.974Zm-3.05-1.558V30.955h2.012v9.593Zm2.31-10.176H15.118V29.4h4.089v.974Zm-3.64.583h.747v9.593h-.747a.292.292,0,0,0-.292.292v1.266H14.08V40.84a.292.292,0,0,0-.292-.292h-.747V30.955h.747a.292.292,0,0,0,.292-.292v-1.29h.455v1.29A.292.292,0,0,0,14.826,30.955ZM9.408,29.4H13.5v.974H9.408V29.4Zm1.038,1.558h2.012v9.593H10.446Zm-.292,10.176H13.5v.974H9.408v-.974ZM3.7,29.4H7.787v.974H3.7Zm1.038,1.558H6.749v9.593H4.736ZM3.7,41.132H7.787v.974H3.7Zm22.257,2.531h-.2a.292.292,0,1,0,0,.583h.721v.974H2.141v-.974H24a.292.292,0,1,0,0-.583H2.66v-.974H25.955Zm-1.038-1.557H20.828v-.974h4.089v.974Zm-1.038-1.558H21.866V30.955h2.012Zm1.038-10.176H20.828V29.4h4.089v.974Zm-4.38.583h.747v9.593h-.747a.292.292,0,0,0-.292.292v1.266H19.79V40.84a.292.292,0,0,0-.292-.292h-.747V30.955H19.5a.292.292,0,0,0,.292-.292v-1.29h.455v1.29A.292.292,0,0,0,20.536,30.955Zm6.231-3.722h-.84a.292.292,0,0,0,0,.583h.546v.974H2.141v-.974H24a.292.292,0,1,0,0-.583H1.419l12.888-7.149,12.874,7.152ZM11.544,22.285a.292.292,0,0,0-.1.223v3.278a.292.292,0,0,0,.241.287l2.576.452a.292.292,0,0,0,.1,0l2.576-.452a.292.292,0,0,0,.241-.287V22.508a.292.292,0,0,0-.342-.287l-2.525.443-2.525-.443A.292.292,0,0,0,11.544,22.285Zm.479.57,1.993.349v1.943a.292.292,0,1,0,.583,0V23.2l1.993-.349v2.686l-1.993.349v-.012a.292.292,0,1,0-.583,0v.012l-1.993-.349V22.855ZM6.034,31.727v8.252a.292.292,0,1,1-.583,0V31.727a.292.292,0,1,1,.583,0Zm5.71,0v8.252a.292.292,0,0,1-.583,0V31.727a.292.292,0,1,1,.583,0Zm5.71,0v8.252a.292.292,0,1,1-.583,0V31.727a.292.292,0,1,1,.583,0Zm5.127,8.252V31.727a.292.292,0,1,1,.583,0v8.252a.292.292,0,0,1-.583,0Z" transform="translate(0 -19.459)" fill="#fff"/>
</svg>
