<svg id="instagram" class="fill" xmlns="http://www.w3.org/2000/svg" width="14.409" height="14.409" viewBox="0 0 14.409 14.409">
  <g transform="translate(-56.924 -506.757)">
    <path d="M7.2,1.281a22.091,22.091,0,0,1,2.882.08,3.713,3.713,0,0,1,1.361.24,2.811,2.811,0,0,1,1.361,1.361,3.713,3.713,0,0,1,.24,1.361c0,.72.08.961.08,2.882a22.091,22.091,0,0,1-.08,2.882,3.713,3.713,0,0,1-.24,1.361,2.811,2.811,0,0,1-1.361,1.361,3.713,3.713,0,0,1-1.361.24c-.72,0-.961.08-2.882.08a22.091,22.091,0,0,1-2.882-.08,3.713,3.713,0,0,1-1.361-.24A2.811,2.811,0,0,1,1.6,11.447a3.713,3.713,0,0,1-.24-1.361c0-.72-.08-.961-.08-2.882a22.091,22.091,0,0,1,.08-2.882A3.713,3.713,0,0,1,1.6,2.962a2.875,2.875,0,0,1,.56-.8,1.353,1.353,0,0,1,.8-.56,3.713,3.713,0,0,1,1.361-.24A22.091,22.091,0,0,1,7.2,1.281M7.2,0A23.653,23.653,0,0,0,4.243.08,4.942,4.942,0,0,0,2.482.4,3.134,3.134,0,0,0,1.2,1.2,3.134,3.134,0,0,0,.4,2.482,3.647,3.647,0,0,0,.08,4.243,23.653,23.653,0,0,0,0,7.2a23.653,23.653,0,0,0,.08,2.962A4.942,4.942,0,0,0,.4,11.928a3.134,3.134,0,0,0,.8,1.281,3.134,3.134,0,0,0,1.281.8,4.942,4.942,0,0,0,1.761.32,23.653,23.653,0,0,0,2.962.08,23.653,23.653,0,0,0,2.962-.08,4.942,4.942,0,0,0,1.761-.32,3.359,3.359,0,0,0,2.081-2.081,4.942,4.942,0,0,0,.32-1.761c0-.8.08-1.041.08-2.962a23.653,23.653,0,0,0-.08-2.962,4.942,4.942,0,0,0-.32-1.761,3.134,3.134,0,0,0-.8-1.281A3.134,3.134,0,0,0,11.928.4,4.942,4.942,0,0,0,10.167.08,23.653,23.653,0,0,0,7.2,0m0,3.522A3.623,3.623,0,0,0,3.522,7.2,3.682,3.682,0,1,0,7.2,3.522m0,6.084A2.359,2.359,0,0,1,4.8,7.2,2.359,2.359,0,0,1,7.2,4.8a2.359,2.359,0,0,1,2.4,2.4,2.359,2.359,0,0,1-2.4,2.4m3.842-7.125a.881.881,0,1,0,.881.881.888.888,0,0,0-.881-.881" transform="translate(56.924 506.757)" fill="#fff" fill-rule="evenodd"/>
  </g>
</svg>
