<svg xmlns="http://www.w3.org/2000/svg" width="61.618" height="69.81" viewBox="0 0 61.618 69.81">
  <g id="Сгруппировать_8595" data-name="Сгруппировать 8595" transform="translate(-25 -813)">
    <path id="Icon_awesome-unlock" data-name="Icon awesome-unlock" d="M53.23,33.9h-33V20.25a9.582,9.582,0,1,1,19.163-.119V22.25a3.179,3.179,0,0,0,3.194,3.179h4.258a3.179,3.179,0,0,0,3.194-3.179V20.131a20.228,20.228,0,1,0-40.455.2V33.9H6.388A6.374,6.374,0,0,0,0,40.262v21.19a6.374,6.374,0,0,0,6.388,6.357H53.23a6.374,6.374,0,0,0,6.388-6.357V40.262A6.374,6.374,0,0,0,53.23,33.9Z" transform="translate(26 814)" fill="none" stroke="#3d5567" stroke-width="2"/>
  </g>
</svg>
