<svg xmlns="http://www.w3.org/2000/svg" width="153.175" height="77" viewBox="0 0 153.175 77">
  <g id="Сгруппировать_7908" data-name="Сгруппировать 7908" transform="translate(2736.324 463.232)">
    <path id="Path_23456" data-name="Path 23456" d="M-2621.71-445.5c-9.987,10.636-27.219,29.644-66.7,30.991l-13.076,13.074c2.794.27,5.655.417,8.59.417,46.264,0,67.263-30.4,74.808-42.586,2.724-4.405.417-6.2-3.623-1.9" transform="translate(33.179 14.289)" fill="#3d5567" stroke="#3d5567" stroke-miterlimit="10" stroke-width="1"/>
    <path id="Path_23457" data-name="Path 23457" d="M-2680.877-451.533a47.9,47.9,0,0,0,8.881,4.387,18.528,18.528,0,0,0,7.358.9s-10.962-9.334-15.239-12.8l-5.992,5.993a9.854,9.854,0,0,1,4.993,1.521" transform="translate(48.294 3.568)" fill="#3d5567" stroke="#3d5567" stroke-miterlimit="10" stroke-width="1"/>
    <path id="Path_23458" data-name="Path 23458" d="M-2680.436-429.513a103.617,103.617,0,0,1-24.342-2.867l-9.583,9.581a89.339,89.339,0,0,0,25.333,6.282l13.079-13.076q-2.2.08-4.489.079" transform="translate(20.717 29.365)" fill="#3d5567" stroke="#3d5567" stroke-miterlimit="10" stroke-width="1"/>
    <path id="Path_23459" data-name="Path 23459" d="M-2697.359-450.328c3.028.984,5.559,2.335,8.131,2.935a15.129,15.129,0,0,0,6.542-.057c3.721-1.121,6.549-2.841,9.343-3.7a11.13,11.13,0,0,1,3.454-.539l5.992-5.993c-.564-.456-1.013-.814-1.3-1.031-2.5-1.873-3.542-2.28-5.76-1.021-2.495,1.417-8.686,4.594-11.657,6.125-2.121,1.1-2.531,1.011-3.859-.283-1.771-1.723-4.24-4.234-6.334-6.493l-9.562,9.562a12.272,12.272,0,0,1,5.018.492" transform="translate(32.318 2.201)" fill="#3d5567" stroke="#3d5567" stroke-miterlimit="10" stroke-width="1"/>
    <path id="Path_23460" data-name="Path 23460" d="M-2724.636-429.95a94.208,94.208,0,0,0,20.216,11.391l9.582-9.579a99.721,99.721,0,0,1-22.993-8.623Z" transform="translate(10.772 25.127)" fill="#3d5567" stroke="#3d5567" stroke-miterlimit="10" stroke-width="1"/>
    <path id="Path_23461" data-name="Path 23461" d="M-2728.458-443.39l-4.384,4.382A83.14,83.14,0,0,0-2716.7-423.54l6.813-6.809a83.781,83.781,0,0,1-18.578-13.038" transform="translate(2.831 18.713)" fill="#3d5567" stroke="#3d5567" stroke-miterlimit="10" stroke-width="1"/>
    <g id="Group_5670" data-name="Group 5670" transform="translate(-2735.766 -462.733)">
      <path id="Path_23462" data-name="Path 23462" d="M-2680.616-461.787c-1.109-1.418-2.611-1.076-4.211-.059-2.268,1.442-33.43,20.879-33.43,20.879a11.176,11.176,0,0,0,5.349.51c6.128-.565,12.4-3.368,17.473-5.613a27.8,27.8,0,0,1,8.418-2.548l9.564-9.56c-1.281-1.377-2.42-2.662-3.163-3.608" transform="translate(2752.712 462.733)" fill="#3d5567" stroke="#3d5567" stroke-miterlimit="10" stroke-width="1"/>
      <path id="Path_23463" data-name="Path 23463" d="M-2731.845-446.13c-2.411-3.648-4.835-1.31-3.578,2.388a34.415,34.415,0,0,0,5.412,9.155l4.383-4.382a43.009,43.009,0,0,1-6.217-7.161" transform="translate(2735.766 477.026)" fill="#3d5567" stroke="#3d5567" stroke-miterlimit="10" stroke-width="1"/>
    </g>
  </g>
</svg>
