<svg xmlns="http://www.w3.org/2000/svg" width="17.044" height="11.651" viewBox="0 0 17.044 11.651">
    <g id="Group_8322" data-name="Group 8322" transform="translate(0 -1.001)">
        <path id="Path_25623" data-name="Path 25623" d="M108.609,210.293l-2.76-3.245,2.452-1.4a.5.5,0,1,0-.495-.867l-5.079,2.9-5.079-2.9a.5.5,0,1,0-.495.867l2.452,1.4-2.76,3.245a.5.5,0,1,0,.761.647l2.882-3.389,1.992,1.136a.5.5,0,0,0,.495,0l1.992-1.136,2.882,3.389a.5.5,0,0,0,.761-.647Z" transform="translate(-94.205 -201.427)" fill="#fff"/>
        <path id="Path_25622" data-name="Path 25622" d="M36.546,136H22.5a1.5,1.5,0,0,0-1.5,1.5v8.655a1.5,1.5,0,0,0,1.5,1.5H36.546a1.5,1.5,0,0,0,1.5-1.5V137.5A1.5,1.5,0,0,0,36.546,136Zm.5,10.153a.5.5,0,0,1-.5.5H22.5a.5.5,0,0,1-.5-.5V137.5a.5.5,0,0,1,.5-.5H36.546a.5.5,0,0,1,.5.5Z" transform="translate(-21 -134.999)" fill="#fff"/>
    </g>
</svg>
