<svg xmlns="http://www.w3.org/2000/svg" width="50.217" height="47.931" viewBox="0 0 50.217 47.931">
  <g id="Сгруппировать_8259" data-name="Сгруппировать 8259" transform="translate(-1261 -163)">
    <g id="Сгруппировать_8258" data-name="Сгруппировать 8258" transform="translate(1261 163)">
      <g id="Сгруппировать_8241" data-name="Сгруппировать 8241" transform="translate(10.622 20.016)">
        <g id="Сгруппировать_8240" data-name="Сгруппировать 8240">
          <path id="Контур_25576" data-name="Контур 25576" d="M116.445,217.028a2.032,2.032,0,0,0-1.138-1.166c-1.036-.4-2.252.166-3.428.71-.252.117-.491.227-.726.328-2.066.885-3.463,4.382-2.577,6.451a2.076,2.076,0,0,0,1.156,1.179,2.3,2.3,0,0,0,.849.152,7.825,7.825,0,0,0,2.918-.886c.173-.077.345-.153.512-.225a4.726,4.726,0,0,0,2.334-2.854A5.262,5.262,0,0,0,116.445,217.028Zm-1.489,3.192a3.4,3.4,0,0,1-1.527,2c-.174.074-.35.153-.53.232-.928.412-2.083.924-2.63.709a.624.624,0,0,1-.34-.387,4.236,4.236,0,0,1,1.8-4.515c.255-.109.514-.229.765-.345.814-.377,1.827-.846,2.281-.672.05.019.182.07.311.37A3.855,3.855,0,0,1,114.956,220.22Z" transform="translate(-108.304 -215.728)" fill="#3d5567"/>
        </g>
      </g>
      <g id="Сгруппировать_8243" data-name="Сгруппировать 8243" transform="translate(36.215 3.904)">
        <g id="Сгруппировать_8242" data-name="Сгруппировать 8242" transform="translate(0 0)">
          <path id="Контур_25577" data-name="Контур 25577" d="M372.568,51.457a3.327,3.327,0,1,0,3.327,3.327A3.331,3.331,0,0,0,372.568,51.457Zm0,5.18a1.853,1.853,0,1,1,1.853-1.853A1.855,1.855,0,0,1,372.568,56.637Z" transform="translate(-369.241 -51.457)" fill="#3d5567"/>
        </g>
      </g>
      <g id="Сгруппировать_8245" data-name="Сгруппировать 8245" transform="translate(15.546 34.11)">
        <g id="Сгруппировать_8244" data-name="Сгруппировать 8244">
          <path id="Контур_25578" data-name="Контур 25578" d="M160.874,359.917a.737.737,0,0,0-.94-.45c-.571.2-.9.3-.9.3a.737.737,0,1,0,.415,1.415c.015,0,.363-.107.976-.323A.737.737,0,0,0,160.874,359.917Z" transform="translate(-158.503 -359.425)" fill="#3d5567"/>
        </g>
      </g>
      <g id="Сгруппировать_8247" data-name="Сгруппировать 8247" transform="translate(35.174 21.013)">
        <g id="Сгруппировать_8246" data-name="Сгруппировать 8246">
          <path id="Контур_25579" data-name="Контур 25579" d="M360.486,226.072a.737.737,0,0,0-1.039.084c-.205.241-.419.485-.634.726a.737.737,0,0,0,1.1.984c.224-.25.446-.5.659-.755A.737.737,0,0,0,360.486,226.072Z" transform="translate(-358.624 -225.896)" fill="#3d5567"/>
        </g>
      </g>
      <g id="Сгруппировать_8249" data-name="Сгруппировать 8249" transform="translate(29.392 26.464)">
        <g id="Сгруппировать_8248" data-name="Сгруппировать 8248" transform="translate(0 0)">
          <path id="Контур_25580" data-name="Контур 25580" d="M301.763,281.746a.737.737,0,0,0-1.036-.116c-.252.2-.508.4-.763.6a.737.737,0,1,0,.895,1.172c.263-.2.528-.407.788-.615A.737.737,0,0,0,301.763,281.746Z" transform="translate(-299.675 -281.468)" fill="#3d5567"/>
        </g>
      </g>
      <g id="Сгруппировать_8251" data-name="Сгруппировать 8251" transform="translate(32.408 23.873)">
        <g id="Сгруппировать_8250" data-name="Сгруппировать 8250">
          <path id="Контур_25581" data-name="Контур 25581" d="M332.411,255.287a.737.737,0,0,0-1.042-.02c-.229.22-.466.443-.7.661a.737.737,0,0,0,1,1.087c.246-.226.492-.457.729-.685A.737.737,0,0,0,332.411,255.287Z" transform="translate(-330.426 -255.061)" fill="#3d5567"/>
        </g>
      </g>
      <g id="Сгруппировать_8253" data-name="Сгруппировать 8253" transform="translate(19.23 32.619)">
        <g id="Сгруппировать_8252" data-name="Сгруппировать 8252">
          <path id="Контур_25582" data-name="Контур 25582" d="M198.372,344.658a.737.737,0,0,0-.978-.362c-.294.135-.591.269-.885.4a.737.737,0,1,0,.589,1.352c.3-.132.609-.269.912-.408A.737.737,0,0,0,198.372,344.658Z" transform="translate(-196.067 -344.229)" fill="#3d5567"/>
        </g>
      </g>
      <g id="Сгруппировать_8255" data-name="Сгруппировать 8255" transform="translate(10.191 33.365)">
        <g id="Сгруппировать_8254" data-name="Сгруппировать 8254">
          <path id="Контур_25583" data-name="Контур 25583" d="M108.5,355.383l-1.147-1.147,1.147-1.147a.737.737,0,0,0-1.043-1.042l-1.147,1.147-1.147-1.147a.737.737,0,0,0-1.043,1.042l1.147,1.147-1.147,1.147a.737.737,0,0,0,1.043,1.043l1.147-1.147,1.147,1.147a.737.737,0,0,0,1.043-1.043Z" transform="translate(-103.905 -351.831)" fill="#3d5567"/>
        </g>
      </g>
      <g id="Сгруппировать_8257" data-name="Сгруппировать 8257" transform="translate(0 0)">
        <g id="Сгруппировать_8256" data-name="Сгруппировать 8256" transform="translate(0 0)">
          <path id="Контур_25584" data-name="Контур 25584" d="M49.48,22.674H45.912a9.374,9.374,0,0,0,.862-3.789,7.235,7.235,0,0,0-10.046-6.663.737.737,0,0,0,.574,1.358,5.76,5.76,0,0,1,8,5.3c0,4.222-4.329,8.3-5.757,9.529-1.429-1.229-5.756-5.3-5.756-9.529a5.76,5.76,0,0,1,1.359-3.715.737.737,0,0,0-1.126-.952,7.236,7.236,0,0,0-1.707,4.667,9.433,9.433,0,0,0,.866,3.789H6.922V14.768a.737.737,0,0,0-.737-.737A6.192,6.192,0,0,0,0,20.215v33.7a.739.739,0,0,0,.019.162,5.953,5.953,0,0,0,5.936,5.506H49.48a.737.737,0,0,0,.737-.737V23.411A.737.737,0,0,0,49.48,22.674ZM28.763,25.563a16.424,16.424,0,0,1,2.05-1.415h3.125A22.891,22.891,0,0,0,38.659,29.6a.733.733,0,0,0-.324.264c-.18.264-.366.53-.553.788a.737.737,0,0,0,1.2.863c.195-.269.388-.546.576-.821a.735.735,0,0,0,.1-.6.734.734,0,0,0,.337-.145,24.167,24.167,0,0,0,3.361-3.305,19.16,19.16,0,0,0,1.794-2.5h3.21a76.468,76.468,0,0,1-3.386,9.911c-.008.02-.016.041-.022.061A9.128,9.128,0,0,1,42.837,37.5c-1.005,1.036-1.7,1.268-1.87,1.24-1.782-1.78-3.25-2.937-4.614-2.8a2.451,2.451,0,0,0-1.8,1.21c-.692,1.038-.128,2.626,1.775,5,.753.939,1.55,1.791,2.073,2.327a13,13,0,0,0-2.912,3.083,10.269,10.269,0,0,0-.454,2.306,9.609,9.609,0,0,1-.552,2.614c-.066.068-.147.153-.241.253-.669.709-2.7,2.866-3.911,2.309-1.415-.653-1.674-2.647-1.318-3.835a5.5,5.5,0,0,1,.542-1.162,4.676,4.676,0,0,0,.773-2.966,5.139,5.139,0,0,0-3.181-4.668.729.729,0,0,0,.156-.074c.28-.179.561-.363.836-.546a.737.737,0,0,0-.819-1.226c-.266.178-.539.356-.811.53a.737.737,0,0,0-.228,1.012,9.126,9.126,0,0,0-1.46-.277c-1.862-.207-3.219-.8-3.456-1.518-.18-.544.378-1.172.727-1.5.65-.607,1.126-1.14,1.508-1.569.812-.911,1.111-1.246,1.942-1.246.088,0,.182,0,.282.011a32.439,32.439,0,0,0,4.108.054c1.947-.12,3.209-.486,3.86-1.119a1.7,1.7,0,0,0,.3-2.1,3.793,3.793,0,0,0-2.557-1.657,11.134,11.134,0,0,0-4.871.119c-3.748.82-5.017.674-5.4.564a3.811,3.811,0,0,1,.879-.853c2.428-1.844,7.887-1.948,7.956-1.949a.737.737,0,0,0,.413-1.341c-.854-.6-1.787-1.561-1.814-2.034C28.7,25.651,28.694,25.623,28.763,25.563ZM6.922,24.148h6.222c-.6,1.89-2.362,6.176-6.222,6.758ZM7.139,58.11c1.087-2.041,3.219-5.224,5.37-5.414,1.313-.116,1.615.19,2.074.653.822.831,1.723,1.5,4.434,1.3a5,5,0,0,1,4.416,2.024,8.289,8.289,0,0,1,.928,1.435H7.139Zm41.6-16.522c-1.251.669-4.779,2.826-4.727,5.848a.737.737,0,0,0,1.474-.025c-.029-1.7,1.846-3.249,3.253-4.124V58.11h-8.27c-.785-3.034.979-4.9,2.688-6.7.277-.292.539-.569.789-.85a.737.737,0,0,0-1.1-.981c-.235.264-.489.532-.758.817-1.66,1.752-3.883,4.1-3.131,7.715H25.986a10,10,0,0,0-1.377-2.324,6.481,6.481,0,0,0-5.7-2.6c-2.253.167-2.75-.336-3.277-.868a3.406,3.406,0,0,0-3.251-1.085c-3.407.3-6.11,5.288-6.881,6.86a4.452,4.452,0,0,1-4.02-4.315,4.743,4.743,0,0,1,.068-.671l0-.019c.011-.065.025-.129.039-.193l.011-.046q.019-.082.041-.163c.007-.026.015-.052.022-.078.012-.043.025-.086.039-.128s.025-.076.039-.114.021-.06.032-.089c.019-.051.039-.1.06-.151l.02-.05q.04-.094.084-.185l.006-.013A4.727,4.727,0,0,1,5.227,49.3l.012,0c.066-.014.134-.025.2-.036l.034-.006c.061-.009.123-.017.185-.024l.051-.006c.06-.006.12-.01.18-.014l.057,0q.118-.006.238-.006a.737.737,0,0,0,.737-.737V42.6a.737.737,0,0,0-1.474,0v5.172c-.1.011-.194.026-.29.042l-.018,0c-.09.015-.18.033-.269.052l-.019,0a6.146,6.146,0,0,0-2.985,1.613q-.207.2-.392.42v-29.7a4.718,4.718,0,0,1,3.973-4.653V39.655a.737.737,0,1,0,1.474,0V32.393c2.492-.3,4.619-1.843,6.186-4.512a16.344,16.344,0,0,0,1.576-3.733H28.166q-.223.171-.383.313a1.586,1.586,0,0,0-.557,1.314,3.39,3.39,0,0,0,1.025,1.93c-1.993.2-5.139.721-7,2.135-1.3.989-1.779,1.884-1.421,2.66.375.812,1.518,1.477,7.151.244a9.454,9.454,0,0,1,4.21-.126,2.463,2.463,0,0,1,1.6.923c.1.19.044.271-.031.343-.5.489-2.594.953-6.834.65-1.779-.127-2.471.65-3.43,1.725-.381.428-.813.912-1.413,1.473a3.03,3.03,0,0,0-1.121,3.04c.352,1.062,1.476,1.845,3.216,2.266l-.019.01a.737.737,0,1,0,.694,1.3c.293-.156.588-.317.876-.478a.735.735,0,0,0,.367-.519c2.389.382,3.587,1.61,3.759,3.838a3.261,3.261,0,0,1-.585,2.125,6.854,6.854,0,0,0-.672,1.465c-.506,1.686-.185,4.538,2.112,5.6a2.466,2.466,0,0,0,1.046.229c1.854,0,3.692-1.949,4.556-2.865.087-.092.161-.171.222-.233.545-.556.727-1.675.961-3.453a10.852,10.852,0,0,1,.347-1.918A15.981,15.981,0,0,1,39.959,45.1a.738.738,0,0,0,.05-1.108,33.288,33.288,0,0,1-2.537-2.781c-1.727-2.155-1.806-3.076-1.691-3.249.313-.47.559-.545.717-.561.854-.085,2.371,1.322,3.436,2.388a1.547,1.547,0,0,0,1.537.361c1.732-.424,4.093-3.119,4.875-5.558.9-2.175,1.722-4.4,2.4-6.5v13.49Z" transform="translate(0 -11.654)" fill="#3d5567"/>
        </g>
      </g>
    </g>
  </g>
</svg>
