<svg class="fill" id="museum" xmlns="http://www.w3.org/2000/svg" width="21.162" height="21.921" viewBox="0 0 21.162 21.921">
  <g transform="translate(-3561 576)">
    <g transform="translate(3561 -576)">
      <g transform="translate(0 9.087)">
        <g transform="translate(0)">
          <path d="M29.7,287H29.65v-.548a1.3,1.3,0,0,0-.95-1.362V278.22h.623a.424.424,0,0,0,0-.825h-.406a1.942,1.942,0,0,0,.163-.788,1.477,1.477,0,0,0-1.276-1.614,1.477,1.477,0,0,0-1.276,1.614,1.943,1.943,0,0,0,.163.788h-.406a.424.424,0,0,0,0,.825h.623v2.719a3.71,3.71,0,0,1-6.564,0V278.22h.623a.424.424,0,0,0,0-.825h-.406a1.942,1.942,0,0,0,.163-.788,1.477,1.477,0,0,0-1.276-1.614,1.477,1.477,0,0,0-1.276,1.614,1.943,1.943,0,0,0,.163.788H17.93a.424.424,0,0,0,0,.825h.623v2.714a3.705,3.705,0,0,1-6.564,0V278.22h.623a.424.424,0,0,0,0-.825h-.406a1.942,1.942,0,0,0,.163-.788,1.477,1.477,0,0,0-1.276-1.614,1.477,1.477,0,0,0-1.276,1.614,1.943,1.943,0,0,0,.163.788H9.574a.424.424,0,0,0,0,.825H10.2v6.871a1.3,1.3,0,0,0-.95,1.362h0V287H9.194a.424.424,0,0,0,0,.825h3.8a.424.424,0,0,0,0-.825h-.053v-.548a1.3,1.3,0,0,0-.95-1.362v-2.919a4.211,4.211,0,0,0,6.564,0v2.919a1.3,1.3,0,0,0-.95,1.362h0V287H17.55a.424.424,0,0,0,0,.825h3.8a.424.424,0,0,0,0-.825h-.053v-.548a1.3,1.3,0,0,0-.95-1.362v-2.916a4.216,4.216,0,0,0,6.564,0v2.916a1.3,1.3,0,0,0-.95,1.362h0V287h-.053a.424.424,0,0,0,0,.825h3.8a.424.424,0,0,0,0-.826Zm-18.61-11.183a.81.81,0,0,1,0,1.576h-.005a.81.81,0,0,1,0-1.576Zm.243,5.307v3.955H10.85v-6.86h.487v2.764h0A.52.52,0,0,0,11.337,281.125Zm.95,5.329V287H9.9v-.548a.5.5,0,0,1,.433-.548h1.519A.5.5,0,0,1,12.286,286.454Zm7.163-10.635a.81.81,0,0,1,0,1.576h-.005a.81.81,0,0,1,0-1.576Zm-.243,5.165V278.22h.487v2.841c0,.006,0,.012,0,.018v4h-.487v-3.955A.52.52,0,0,0,19.206,280.984Zm1.436,5.47V287H18.256v-.548a.5.5,0,0,1,.433-.548h1.519A.5.5,0,0,1,20.642,286.454ZM27.8,275.818a.81.81,0,0,1,0,1.576H27.8a.81.81,0,0,1,0-1.576Zm.243,2.4v6.86h-.487v-4s0-.008,0-.013V278.22ZM29,287H26.612v-.548a.5.5,0,0,1,.433-.548h1.519a.5.5,0,0,1,.433.548Z" transform="translate(-8.868 -274.993)" fill="#fff"/>
        </g>
      </g>
      <g transform="translate(3.363)">
        <g transform="translate(0)">
          <path d="M85.4,3.3h0V.413C85.4.185,85.269,0,85.1,0H71.262c-.164,0-.3.185-.3.413v13.45c0,.228.133.413.3.413H85.1c.164,0,.3-.185.3-.413V10.982h0V3.3ZM73.636.825h9.1v.616h-9.1Zm8.946,5.6a.287.287,0,0,0-.246-.181H81.249V4.668h.395c.164,0,.3-.185.3-.413s-.133-.413-.3-.413H76.107c-.164,0-.3.185-.3.413s.133.413.3.413h.253l-.454,1.576H74.031a.307.307,0,0,0-.268.234.547.547,0,0,0,.036.437l1,1.731H72.6V2.267H83.762v6.38H82.083l.529-1.836A.552.552,0,0,0,82.582,6.426Zm-6.475.644H81.9l-.454,1.576H75.558L74.65,7.07h1.458Zm4.548-.826H76.546L77,4.668h3.654ZM71.56.825h1.482v.616H72.3c-.164,0-.3.185-.3.413V2.882H71.56Zm0,2.882H72v6.86H71.56Zm1.482,9.742H71.56V11.393H72v1.018c0,.228.133.413.3.413h.741v.626ZM80.91,12c-.164,0-.3.185-.3.413s.133.413.3.413h1.821v.626H73.636v-.626H79.61c.164,0,.3-.185.3-.413S79.774,12,79.61,12H72.6V9.472H83.762V12Zm3.9,1.451H83.326v-.626h.734c.164,0,.3-.185.3-.413V11.393h.451V13.45Zm0-2.882h-.451V3.708h.451Zm0-7.686h-.451V1.854c0-.228-.133-.413-.3-.413h-.733V.825h1.482V2.882Z" transform="translate(-70.965 0)" fill="#fff"/>
        </g>
      </g>
      <g transform="translate(5.091 7.911)">
        <g data-name="Сгруппировать 6413" transform="translate(0)">
          <path d="M136.357,186.287h-2.882a.413.413,0,0,0,0,.825h2.882a.413.413,0,0,0,0-.825Z" transform="translate(-133.062 -186.287)" fill="#fff"/>
        </g>
      </g>
      <g transform="translate(12.364 8.288)">
        <g transform="translate(0)">
          <path d="M313.768,195.156h-2.882a.413.413,0,0,0,0,.825h2.882a.413.413,0,1,0,0-.825Z" transform="translate(-310.473 -195.156)" fill="#fff"/>
        </g>
      </g>
    </g>
  </g>
</svg>
