


<svg xmlns="http://www.w3.org/2000/svg" width="38.231" height="38.231" viewBox="0 0 38.231 38.231">
    <g id="Group_8323" data-name="Group 8323" transform="translate(-484.769 -632.776)">
        <g id="Group_8116" data-name="Group 8116" transform="translate(9 -55)">
            <path id="Path_25277" data-name="Path 25277" d="M19.116,0A19.116,19.116,0,1,1,0,19.116,19.116,19.116,0,0,1,19.116,0Z" transform="translate(475.769 687.776)" fill="#d6d7d9"/>
            <g id="Group_7536" data-name="Group 7536" transform="translate(486.414 698.569)">
                <g id="Group_7533" data-name="Group 7533" transform="translate(0 0)">
                    <path id="Path_12122" data-name="Path 12122" d="M-54.186-39.178a2.522,2.522,0,0,0,.8.542,2.518,2.518,0,0,0,.986.2,2.518,2.518,0,0,0,.986-.2,2.523,2.523,0,0,0,.8-.542,2.522,2.522,0,0,0,.542-.8,2.518,2.518,0,0,0,.2-.986,2.517,2.517,0,0,0-.2-.986,2.522,2.522,0,0,0-.542-.8,2.522,2.522,0,0,0-.8-.542,2.518,2.518,0,0,0-.986-.2,2.517,2.517,0,0,0-.986.2,2.522,2.522,0,0,0-.8.542,2.522,2.522,0,0,0-.542.8,2.518,2.518,0,0,0-.2.986,2.522,2.522,0,0,0,.1.706l-5.545,3.186q-.056-.064-.116-.124a2.522,2.522,0,0,0-.8-.542,2.518,2.518,0,0,0-.986-.2,2.517,2.517,0,0,0-.986.2,2.522,2.522,0,0,0-.8.542,2.522,2.522,0,0,0-.542.8,2.518,2.518,0,0,0-.2.986,2.517,2.517,0,0,0,.2.986,2.522,2.522,0,0,0,.542.8,2.523,2.523,0,0,0,.8.542,2.518,2.518,0,0,0,.986.2,2.518,2.518,0,0,0,.986-.2,2.522,2.522,0,0,0,.8-.542q.062-.062.119-.127l5.542,3.173a2.522,2.522,0,0,0-.1.7,2.517,2.517,0,0,0,.2.986,2.522,2.522,0,0,0,.542.8,2.523,2.523,0,0,0,.8.542,2.518,2.518,0,0,0,.986.2,2.518,2.518,0,0,0,.986-.2,2.522,2.522,0,0,0,.8-.542,2.522,2.522,0,0,0,.542-.8,2.517,2.517,0,0,0,.2-.986,2.518,2.518,0,0,0-.2-.986,2.522,2.522,0,0,0-.542-.8,2.523,2.523,0,0,0-.8-.542,2.518,2.518,0,0,0-.986-.2,2.517,2.517,0,0,0-.986.2,2.523,2.523,0,0,0-.8.542l-.047.048-5.586-3.2a2.528,2.528,0,0,0,.071-.6,2.529,2.529,0,0,0-.072-.6l5.589-3.211Zm1.054,8.195A1.327,1.327,0,0,1-52.4-31.2a1.334,1.334,0,0,1,1.334,1.334A1.334,1.334,0,0,1-52.4-28.537a1.334,1.334,0,0,1-1.334-1.334c0-.024,0-.048,0-.072A1.332,1.332,0,0,1-53.131-30.983Zm-9.148-3.094a1.334,1.334,0,0,1-1.334-1.334,1.334,1.334,0,0,1,1.334-1.334,1.327,1.327,0,0,1,.827.288,1.331,1.331,0,0,1,.507,1.046,1.331,1.331,0,0,1-.505,1.045A1.328,1.328,0,0,1-62.279-34.076Zm8.55-6.892A1.334,1.334,0,0,1-52.4-42.3a1.334,1.334,0,0,1,1.334,1.334A1.334,1.334,0,0,1-52.4-39.634a1.327,1.327,0,0,1-.734-.221,1.332,1.332,0,0,1-.6-1.039C-53.728-40.919-53.729-40.943-53.729-40.968Z" transform="translate(64.825 43.514)" fill="#3d5567" stroke="#3d5567" stroke-width="0.2"/>
                    <path id="Path_12123" data-name="Path 12123" d="M-52.88-27.811a2.532,2.532,0,0,1-.991-.2,2.537,2.537,0,0,1-.809-.545,2.536,2.536,0,0,1-.545-.809,2.531,2.531,0,0,1-.2-.991,2.543,2.543,0,0,1,.1-.7l-5.522-3.162c-.036.041-.074.081-.112.119a2.536,2.536,0,0,1-.809.545,2.532,2.532,0,0,1-.991.2,2.531,2.531,0,0,1-.991-.2,2.538,2.538,0,0,1-.809-.545,2.535,2.535,0,0,1-.545-.809,2.531,2.531,0,0,1-.2-.991,2.532,2.532,0,0,1,.2-.991,2.536,2.536,0,0,1,.545-.809,2.536,2.536,0,0,1,.809-.545,2.531,2.531,0,0,1,.991-.2,2.531,2.531,0,0,1,.991.2,2.536,2.536,0,0,1,.809.545c.037.037.074.076.109.116l5.526-3.175a2.542,2.542,0,0,1-.1-.7,2.532,2.532,0,0,1,.2-.991,2.537,2.537,0,0,1,.545-.809,2.536,2.536,0,0,1,.809-.545,2.531,2.531,0,0,1,.991-.2,2.531,2.531,0,0,1,.991.2,2.536,2.536,0,0,1,.809.545,2.536,2.536,0,0,1,.545.809,2.532,2.532,0,0,1,.2.991,2.531,2.531,0,0,1-.2.991,2.537,2.537,0,0,1-.545.809,2.535,2.535,0,0,1-.809.545,2.531,2.531,0,0,1-.991.2,2.531,2.531,0,0,1-.991-.2,2.536,2.536,0,0,1-.809-.545l-.037-.038-5.571,3.2a2.551,2.551,0,0,1,.07.595,2.55,2.55,0,0,1-.069.591l5.567,3.188.039-.04a2.537,2.537,0,0,1,.809-.545,2.532,2.532,0,0,1,.991-.2,2.532,2.532,0,0,1,.991.2,2.537,2.537,0,0,1,.809.545,2.535,2.535,0,0,1,.545.809,2.532,2.532,0,0,1,.2.991,2.531,2.531,0,0,1-.2.991,2.536,2.536,0,0,1-.545.809,2.535,2.535,0,0,1-.809.545A2.531,2.531,0,0,1-52.88-27.811Zm-7.978-6.44.01.006,5.551,3.179,0,.011a2.514,2.514,0,0,0-.1.7,2.5,2.5,0,0,0,.2.981,2.508,2.508,0,0,0,.539.8,2.508,2.508,0,0,0,.8.539,2.5,2.5,0,0,0,.981.2,2.5,2.5,0,0,0,.981-.2,2.508,2.508,0,0,0,.8-.539,2.507,2.507,0,0,0,.539-.8,2.5,2.5,0,0,0,.2-.981,2.5,2.5,0,0,0-.2-.981,2.507,2.507,0,0,0-.539-.8,2.509,2.509,0,0,0-.8-.539,2.5,2.5,0,0,0-.981-.2,2.5,2.5,0,0,0-.981.2,2.509,2.509,0,0,0-.8.539l-.046.048-.008.008-.01-.005-5.6-3.2,0-.01a2.522,2.522,0,0,0,.071-.595,2.523,2.523,0,0,0-.072-.6l0-.01.009-.005,5.6-3.217.008.008.044.045a2.509,2.509,0,0,0,.8.539,2.5,2.5,0,0,0,.981.2,2.5,2.5,0,0,0,.981-.2,2.508,2.508,0,0,0,.8-.539,2.508,2.508,0,0,0,.539-.8,2.5,2.5,0,0,0,.2-.98,2.5,2.5,0,0,0-.2-.98,2.508,2.508,0,0,0-.539-.8,2.508,2.508,0,0,0-.8-.539,2.5,2.5,0,0,0-.981-.2,2.5,2.5,0,0,0-.981.2,2.508,2.508,0,0,0-.8.539,2.508,2.508,0,0,0-.539.8,2.5,2.5,0,0,0-.2.98,2.512,2.512,0,0,0,.1.7l0,.011-5.565,3.2-.008-.009c-.038-.043-.077-.085-.116-.124a2.509,2.509,0,0,0-.8-.539,2.5,2.5,0,0,0-.981-.2,2.5,2.5,0,0,0-.98.2,2.508,2.508,0,0,0-.8.539,2.508,2.508,0,0,0-.539.8,2.5,2.5,0,0,0-.2.981,2.5,2.5,0,0,0,.2.981,2.508,2.508,0,0,0,.539.8,2.509,2.509,0,0,0,.8.539,2.5,2.5,0,0,0,.98.2,2.5,2.5,0,0,0,.981-.2,2.508,2.508,0,0,0,.8-.539c.04-.04.08-.082.118-.126Zm7.978,5.241a1.349,1.349,0,0,1-1.348-1.348c0-.023,0-.048,0-.073a1.353,1.353,0,0,1,.6-1.051,1.341,1.341,0,0,1,.744-.224,1.349,1.349,0,0,1,1.348,1.348A1.349,1.349,0,0,1-52.88-29.009Zm0-2.667a1.313,1.313,0,0,0-.728.219,1.325,1.325,0,0,0-.589,1.029c0,.024,0,.048,0,.071a1.321,1.321,0,0,0,1.32,1.32,1.321,1.321,0,0,0,1.32-1.32A1.321,1.321,0,0,0-52.88-31.676Zm-9.884-2.872A1.349,1.349,0,0,1-64.112-35.9a1.349,1.349,0,0,1,1.348-1.348,1.333,1.333,0,0,1,.836.291,1.341,1.341,0,0,1,.512,1.057,1.341,1.341,0,0,1-.51,1.056A1.333,1.333,0,0,1-62.764-34.548Zm0-2.667a1.321,1.321,0,0,0-1.32,1.32,1.321,1.321,0,0,0,1.32,1.32,1.305,1.305,0,0,0,.82-.286,1.313,1.313,0,0,0,.5-1.034,1.313,1.313,0,0,0-.5-1.035A1.306,1.306,0,0,0-62.764-37.215Zm9.884-2.891a1.341,1.341,0,0,1-.742-.223,1.353,1.353,0,0,1-.6-1.05c0-.026,0-.051,0-.075A1.349,1.349,0,0,1-52.88-42.8a1.349,1.349,0,0,1,1.348,1.348A1.349,1.349,0,0,1-52.88-40.106Zm0-2.667a1.321,1.321,0,0,0-1.32,1.32c0,.023,0,.047,0,.073a1.325,1.325,0,0,0,.591,1.028,1.314,1.314,0,0,0,.727.218,1.321,1.321,0,0,0,1.32-1.32A1.321,1.321,0,0,0-52.88-42.774Z" transform="translate(65.31 44)" fill="#3d5567" stroke="#3d5567" stroke-width="0.2"/>
                </g>
            </g>
        </g>
    </g>
</svg>
