<svg xmlns="http://www.w3.org/2000/svg" width="32.11" height="27.806" viewBox="0 0 32.11 27.806">
  <g id="Сгруппировать_5528" data-name="Сгруппировать 5528" transform="translate(0.9 1.403)">
    <path id="Path_6226" data-name="Path 6226" d="M51.879,21.126a29.137,29.137,0,0,0,6.274-6.058v-.913s-7.865-11.025-18.414-8.6" transform="translate(-27.843 -2.977)" fill="none" stroke="#3d5567" stroke-linecap="round" stroke-linejoin="round" stroke-width="1.8"/>
    <path id="Path_6226-2" data-name="Path 6226" d="M38.917,6.6a27.724,27.724,0,0,0-7.149,6.625v.913s8.353,11.71,19.39,8.342" transform="translate(-31.768 -2.046)" fill="none" stroke="#3d5567" stroke-linecap="round" stroke-linejoin="round" stroke-width="1.8"/>
    <path id="Path_11567" data-name="Path 11567" d="M34.9,3.867,43.99,15.585,54.3,28.867" transform="translate(-30.228 -3.867)" fill="none" stroke="#3d5567" stroke-linecap="round" stroke-width="2"/>
    <g id="Сгруппировать_5527" data-name="Сгруппировать 5527" transform="translate(9.862 5.425)">
      <path id="Контур_11575" data-name="Контур 11575" d="M47.375,15.424a6.636,6.636,0,0,0,.248-4.057A5.661,5.661,0,0,0,44.594,7.6a4.654,4.654,0,0,0-3.5-.24.691.691,0,0,0-.273,1.062l5.564,7.168A.564.564,0,0,0,47.375,15.424Z" transform="translate(-37.241 -7.122)" fill="#3d5567"/>
      <path id="Контур_11576" data-name="Контур 11576" d="M39.182,8.805a6.38,6.38,0,0,0-.806,3.107c0,3.265,2.37,5.912,5.294,5.912a4.811,4.811,0,0,0,2.122-.5Z" transform="translate(-38.376 -6)" fill="#3d5567"/>
    </g>
  </g>
</svg>
