<svg id="phone" class="fill" xmlns="http://www.w3.org/2000/svg" width="17.964" height="17.994" viewBox="0 0 17.964 17.994">
  <g transform="translate(0 0)">
    <path d="M-590.2,12.62a1.632,1.632,0,0,0-1.189-.544,1.7,1.7,0,0,0-1.2.541l-1.156,1.156q-.151-.084-.3-.157a3.511,3.511,0,0,1-.358-.194,12.293,12.293,0,0,1-2.968-2.707,7.135,7.135,0,0,1-.984-1.566c.3-.276.582-.559.854-.839.1-.1.2-.205.3-.306a1.727,1.727,0,0,0,.559-1.215,1.727,1.727,0,0,0-.559-1.215l-.98-.98c-.112-.112-.228-.227-.336-.339-.216-.22-.44-.451-.675-.667a1.665,1.665,0,0,0-1.182-.518,1.724,1.724,0,0,0-1.2.518l-.007.007-1.23,1.23a2.585,2.585,0,0,0-.768,1.648,6.153,6.153,0,0,0,.459,2.654,15.447,15.447,0,0,0,2.744,4.578,16.881,16.881,0,0,0,5.622,4.4,8.79,8.79,0,0,0,3.154.932c.075,0,.153.007.224.007a2.668,2.668,0,0,0,2.047-.88l.015-.015a7.922,7.922,0,0,1,.63-.652c.153-.149.313-.3.466-.466a1.631,1.631,0,0,0-.008-2.427Zm1.342,3.788h0c-.142.149-.287.291-.44.44a9,9,0,0,0-.69.716,1.762,1.762,0,0,1-1.379.585c-.056,0-.112,0-.168,0a7.9,7.9,0,0,1-2.822-.846,16.061,16.061,0,0,1-5.324-4.168,14.625,14.625,0,0,1-2.6-4.321,5.167,5.167,0,0,1-.406-2.267,1.7,1.7,0,0,1,.511-1.092l1.227-1.227a.84.84,0,0,1,.574-.265.789.789,0,0,1,.552.261l.011.011c.22.205.429.418.649.645.112.112.227.231.343.347l.981.98a.727.727,0,0,1,0,1.167c-.1.1-.205.209-.31.309-.306.309-.593.6-.906.88-.007,0-.011.011-.019.019a.681.681,0,0,0-.175.775c0,.011.007.019.011.03a7.806,7.806,0,0,0,1.156,1.886l0,0a13.256,13.256,0,0,0,3.184,2.9,4.242,4.242,0,0,0,.44.239,3.511,3.511,0,0,1,.358.194.414.414,0,0,0,.041.022.775.775,0,0,0,.339.086.736.736,0,0,0,.522-.239l1.23-1.23a.83.83,0,0,1,.57-.28.8.8,0,0,1,.548.272l.007.007,1.983,1.983A.761.761,0,0,1-588.856,16.408Z" transform="translate(603.593 -1.053)" fill="#324655"/>
    <path d="M-339.861,32.864a.452.452,0,0,0,.317-.13.452.452,0,0,0,.13-.317.452.452,0,0,0-.13-.317.452.452,0,0,0-.317-.13.451.451,0,0,0-.317.13.452.452,0,0,0-.131.317.452.452,0,0,0,.131.317A.451.451,0,0,0-339.861,32.864Z" transform="translate(350.124 -28.876)" fill="#324655"/>
    <path d="M-300.142,46.086a.456.456,0,0,0,.4-.242.449.449,0,0,0-.19-.6.446.446,0,0,0-.6.19.446.446,0,0,0,.19.6A.409.409,0,0,0-300.142,46.086Z" transform="translate(311.885 -41.602)" fill="#324655"/>
    <path d="M-266.068,70.809a.448.448,0,0,0,0-.634.448.448,0,0,0-.634,0,.448.448,0,0,0,0,.634.449.449,0,0,0,.317.13A.449.449,0,0,0-266.068,70.809Z" transform="translate(279.388 -65.531)" fill="#324655"/>
    <path d="M-241.747,103.942a.446.446,0,0,0-.19.6.447.447,0,0,0,.4.242.437.437,0,0,0,.205-.048.446.446,0,0,0,.19-.6A.443.443,0,0,0-241.747,103.942Z" transform="translate(255.47 -98.117)" fill="#324655"/>
    <path d="M-228.608,144.116a.452.452,0,0,0,.13.317.452.452,0,0,0,.317.13.452.452,0,0,0,.317-.13.452.452,0,0,0,.13-.317.452.452,0,0,0-.13-.317.452.452,0,0,0-.317-.13.452.452,0,0,0-.317.13A.452.452,0,0,0-228.608,144.116Z" transform="translate(242.588 -136.412)" fill="#324655"/>
    <path d="M-350.733,111.587a1.548,1.548,0,0,1,.835.432,1.524,1.524,0,0,1,.432.835.447.447,0,0,0,.44.373.5.5,0,0,0,.075-.007.447.447,0,0,0,.365-.514,2.432,2.432,0,0,0-.682-1.316,2.433,2.433,0,0,0-1.316-.682.447.447,0,0,0-.514.365A.441.441,0,0,0-350.733,111.587Z" transform="translate(360.518 -104.672)" fill="#324655"/>
    <path d="M-328.477-43.515a9.084,9.084,0,0,0-2.554-4.925,9.084,9.084,0,0,0-4.925-2.554.447.447,0,0,0-.514.365.447.447,0,0,0,.365.514,8.2,8.2,0,0,1,4.444,2.3,8.2,8.2,0,0,1,2.3,4.444.447.447,0,0,0,.44.373.5.5,0,0,0,.075-.007A.443.443,0,0,0-328.477-43.515Z" transform="translate(346.435 51)" fill="#324655"/>
  </g>
</svg>
