<svg xmlns="http://www.w3.org/2000/svg" width="14.064" height="25.624" viewBox="0 0 14.064 25.624">
    <g id="Group_8311" data-name="Group 8311" transform="translate(0 0)">
        <path id="Path_25429" data-name="Path 25429" d="M43.561-18.158l-5.15-4.509a1.5,1.5,0,0,0-.982-.367,1.5,1.5,0,0,0-.982.367l-1.827,1.6a4.679,4.679,0,0,1-.163-1.223A4.287,4.287,0,0,1,35.371-25a2.67,2.67,0,0,1,2.058-1.06c1.638,0,2.971,1.69,2.971,3.775a.632.632,0,0,0,.63.63h0a.632.632,0,0,0,.63-.63c0-2.777-1.9-5.034-4.231-5.034A3.9,3.9,0,0,0,34.395-25.8a5.541,5.541,0,0,0-1.2,3.512,5.86,5.86,0,0,0,.394,2.126L31.3-18.158a2.654,2.654,0,0,0-.9,1.99V-4.861A3.164,3.164,0,0,0,33.56-1.7H41.3a3.164,3.164,0,0,0,3.16-3.16V-16.168A2.654,2.654,0,0,0,43.561-18.158ZM43.2-4.861a1.9,1.9,0,0,1-1.9,1.9H33.555a1.9,1.9,0,0,1-1.9-1.9V-16.168a1.394,1.394,0,0,1,.472-1.045L34.2-19.03l.189.252a3.9,3.9,0,0,0,3.034,1.522h0a.632.632,0,0,0,.63-.63.632.632,0,0,0-.63-.63,2.662,2.662,0,0,1-2.058-1.06c-.073-.094-.147-.189-.215-.289l2.121-1.858a.223.223,0,0,1,.152-.058.223.223,0,0,1,.152.058l5.15,4.509a1.394,1.394,0,0,1,.472,1.045V-4.861Z" transform="translate(-30.4 27.324)" fill="#fff"/>
        <path id="Path_25430" data-name="Path 25430" d="M113.733,195.259h-1.386a.887.887,0,1,1,0-1.774h2.441a.63.63,0,1,0,0-1.26H113.67v-.819a.63.63,0,1,0-1.26,0v.819h-.063a2.147,2.147,0,1,0,0,4.294h1.386a.887.887,0,1,1,0,1.774h-2.488a.63.63,0,0,0,0,1.26h1.165v.835a.63.63,0,1,0,1.26,0v-.835h.089a2.147,2.147,0,0,0-.026-4.294Z" transform="translate(-106.01 -179.326)" fill="#fff"/>
    </g>
</svg>
