<svg xmlns="http://www.w3.org/2000/svg" width="135.5" height="131.472" viewBox="0 0 135.5 131.472">
  <g id="Сгруппировать_8184" data-name="Сгруппировать 8184" transform="translate(4.001 48.719)">
    <path id="Контур_25537" data-name="Контур 25537" d="M130.649,49.769,110.343,29.462c.875-2.474.6-5.186.348-7.626a15.179,15.179,0,0,1-.033-4.932,14.618,14.618,0,0,1,2.4-4.054c1.754-2.408,3.742-5.138,3.742-8.514s-1.988-6.106-3.742-8.514a14.607,14.607,0,0,1-2.4-4.054,15.173,15.173,0,0,1,.033-4.933c.3-2.912.642-6.213-.99-9.033-1.654-2.859-4.709-4.218-7.4-5.416A14.917,14.917,0,0,1,98.08-30a14.912,14.912,0,0,1-2.38-4.216c-1.2-2.7-2.557-5.75-5.416-7.4a10.27,10.27,0,0,0-5.333-1.243,36.052,36.052,0,0,0-3.7.254c-1.117.115-2.173.225-3.136.225a7.019,7.019,0,0,1-1.8-.192,14.614,14.614,0,0,1-4.054-2.4c-2.408-1.754-5.138-3.742-8.514-3.742s-6.106,1.988-8.514,3.742a14.6,14.6,0,0,1-4.055,2.4,7.018,7.018,0,0,1-1.8.192c-.964,0-2.019-.109-3.137-.225a36.052,36.052,0,0,0-3.7-.254,10.27,10.27,0,0,0-5.332,1.243c-2.859,1.654-4.218,4.709-5.416,7.4A14.927,14.927,0,0,1,29.419-30,14.923,14.923,0,0,1,25.2-27.615c-2.7,1.2-5.75,2.557-7.4,5.416-1.631,2.82-1.29,6.121-.99,9.033a15.172,15.172,0,0,1,.033,4.933,14.614,14.614,0,0,1-2.4,4.054C12.683-1.771,10.7.959,10.7,4.335s1.988,6.106,3.742,8.514a14.615,14.615,0,0,1,2.4,4.055,15.171,15.171,0,0,1-.033,4.932c-.252,2.44-.528,5.152.347,7.626L-3.15,49.769a2.9,2.9,0,0,0-.7,2.989A2.9,2.9,0,0,0-1.471,54.7l22.582,2.939,2.939,22.582A2.9,2.9,0,0,0,28.983,81.9L56.4,54.482c2.122,1.494,4.507,2.907,7.353,2.907s5.232-1.413,7.353-2.907L98.515,81.9a2.9,2.9,0,0,0,4.934-1.678l2.939-22.582L128.97,54.7a2.9,2.9,0,0,0,1.68-4.933ZM26.583,54.676a2.9,2.9,0,0,0-2.505-2.505L5.13,49.7l15.7-15.7A27.508,27.508,0,0,0,25.2,36.286a14.917,14.917,0,0,1,4.216,2.38,14.914,14.914,0,0,1,2.38,4.216c1.2,2.7,2.557,5.75,5.416,7.4a10.269,10.269,0,0,0,5.333,1.243,36.049,36.049,0,0,0,3.7-.254c1.117-.115,2.172-.224,3.136-.224a7.024,7.024,0,0,1,1.8.192c.061.016.123.035.185.055L29.048,73.622Zm32.072-5.723a18.675,18.675,0,0,0-5.974-3.32,12.672,12.672,0,0,0-3.3-.389,36.315,36.315,0,0,0-3.733.255c-1.109.115-2.156.223-3.1.223a4.924,4.924,0,0,1-2.424-.462c-1.227-.71-2.137-2.757-3.017-4.736a19.031,19.031,0,0,0-3.581-5.963,19.034,19.034,0,0,0-5.963-3.581c-1.98-.88-4.027-1.79-4.737-3.018-.688-1.188-.46-3.394-.24-5.527a19.344,19.344,0,0,0-.133-7.029,18.681,18.681,0,0,0-3.32-5.974C17.782,7.574,16.5,5.821,16.5,4.336S17.781,1.1,19.133-.759a18.678,18.678,0,0,0,3.32-5.974,19.333,19.333,0,0,0,.133-7.029c-.22-2.133-.448-4.338.239-5.527.71-1.227,2.757-2.137,4.737-3.018a19.032,19.032,0,0,0,5.964-3.581,19.038,19.038,0,0,0,3.58-5.963c.88-1.98,1.79-4.027,3.018-4.737a4.922,4.922,0,0,1,2.423-.462c.948,0,1.995.108,3.1.223a36.32,36.32,0,0,0,3.734.255,12.664,12.664,0,0,0,3.3-.389,18.674,18.674,0,0,0,5.974-3.32c1.856-1.352,3.609-2.629,5.095-2.629s3.239,1.277,5.095,2.629a18.673,18.673,0,0,0,5.974,3.32,12.667,12.667,0,0,0,3.3.389,36.32,36.32,0,0,0,3.733-.255c1.109-.115,2.156-.223,3.1-.223a4.928,4.928,0,0,1,2.424.462c1.227.71,2.137,2.757,3.017,4.736a19.034,19.034,0,0,0,3.581,5.963,19.026,19.026,0,0,0,5.963,3.581c1.98.88,4.027,1.79,4.736,3.018.688,1.189.46,3.394.24,5.527a19.342,19.342,0,0,0,.133,7.029,18.671,18.671,0,0,0,3.321,5.974C109.719,1.1,111,2.85,111,4.336s-1.277,3.239-2.629,5.095a18.671,18.671,0,0,0-3.321,5.974,19.347,19.347,0,0,0-.134,7.029c.22,2.133.448,4.339-.24,5.528-.71,1.227-2.757,2.137-4.736,3.017a19.025,19.025,0,0,0-5.964,3.581,19.033,19.033,0,0,0-3.58,5.963c-.88,1.98-1.79,4.027-3.018,4.737a4.925,4.925,0,0,1-2.424.462c-.948,0-1.995-.108-3.1-.223a36.315,36.315,0,0,0-3.733-.255,12.667,12.667,0,0,0-3.3.389,18.678,18.678,0,0,0-5.974,3.32c-1.856,1.352-3.61,2.629-5.095,2.629S60.511,50.3,58.655,48.953Zm44.767,3.218a2.9,2.9,0,0,0-2.505,2.505L98.451,73.622,76.134,51.3c.062-.02.124-.039.185-.056a7.018,7.018,0,0,1,1.8-.192c.964,0,2.019.109,3.136.224a36.062,36.062,0,0,0,3.7.254,10.272,10.272,0,0,0,5.332-1.243c2.86-1.654,4.218-4.709,5.417-7.4a14.915,14.915,0,0,1,2.38-4.216,14.912,14.912,0,0,1,4.216-2.38,27.488,27.488,0,0,0,4.377-2.278l15.7,15.7Z" fill="#85cb3f"/>
    <path id="Контур_25538" data-name="Контур 25538" d="M179.872,95.4a2.9,2.9,0,0,0,1.146-2.89L177.69,74.943l13.018-12.255a2.9,2.9,0,0,0-1.623-5l-17.736-2.263L163.716,39.26a2.9,2.9,0,0,0-5.253,0l-7.633,16.169-17.736,2.263a2.9,2.9,0,0,0-1.623,5L144.49,74.943,141.161,92.51a2.9,2.9,0,0,0,4.25,3.087L161.09,87,176.769,95.6A2.9,2.9,0,0,0,179.872,95.4ZM162.486,81.145a2.905,2.905,0,0,0-2.792,0l-11.68,6.4,2.48-13.087a2.905,2.905,0,0,0-.863-2.655l-9.7-9.13,13.212-1.686a2.9,2.9,0,0,0,2.259-1.641L161.09,47.3l5.686,12.045a2.9,2.9,0,0,0,2.259,1.641l13.213,1.686-9.7,9.13a2.9,2.9,0,0,0-.863,2.655l2.48,13.087Z" transform="translate(-97.34 -62.44)" fill="#85cb3f"/>
  </g>
</svg>
