<svg xmlns="http://www.w3.org/2000/svg" width="44" height="44" viewBox="0 0 44 44">
  <g id="Сгруппировать_8319" data-name="Сгруппировать 8319" transform="translate(-606 -705)">
    <g id="Сгруппировать_8318" data-name="Сгруппировать 8318" transform="translate(1)">
      <g id="Сгруппировать_8317" data-name="Сгруппировать 8317">
        <g id="Сгруппировать_8316" data-name="Сгруппировать 8316">
          <g id="Сгруппировать_8315" data-name="Сгруппировать 8315" transform="translate(1)">
            <g id="Сгруппировать_8314" data-name="Сгруппировать 8314">
              <g id="Сгруппировать_8313" data-name="Сгруппировать 8313">
                <g id="Сгруппировать_8312" data-name="Сгруппировать 8312">
                  <g id="Сгруппировать_8311" data-name="Сгруппировать 8311">
                    <g id="Сгруппировать_8310" data-name="Сгруппировать 8310">
                      <circle id="Эллипс_5909" data-name="Эллипс 5909" cx="22" cy="22" r="22" transform="translate(604 705)" fill="#fc0d00"/>
                    </g>
                  </g>
                </g>
              </g>
            </g>
          </g>
        </g>
      </g>
      <g id="Сгруппировать_8187" data-name="Сгруппировать 8187" transform="translate(416.875 560.05)">
        <path id="Контур_6226" data-name="Контур 6226" d="M199.123,166.851s9.6,12.049,20.25,0v-.546s-9.6-12.05-20.25,0Z" fill="none" stroke="#fbfdff" stroke-linecap="round" stroke-linejoin="round" stroke-width="1.8"/>
        <path id="Вычитание_2" data-name="Вычитание 2" d="M17491.664-7899.976a3.543,3.543,0,0,1-3.539-3.539,3.541,3.541,0,0,1,3.539-3.534,3.539,3.539,0,0,1,3.535,3.534A3.541,3.541,0,0,1,17491.664-7899.976Zm-1.094-5.936a1.088,1.088,0,0,0-1.084,1.089,1.088,1.088,0,0,0,1.084,1.089,1.09,1.09,0,0,0,1.09-1.089A1.09,1.09,0,0,0,17490.57-7905.912Z" transform="translate(-17282.412 8069.913)" fill="#fff"/>
      </g>
    </g>
    <line id="Линия_768" data-name="Линия 768" y1="14" x2="12" transform="translate(620.5 719.5)" fill="none" stroke="#fff" stroke-linecap="round" stroke-width="2"/>
  </g>
</svg>
