<svg id="rink" class="fill-stroke" xmlns="http://www.w3.org/2000/svg" width="22.578" height="19.497" viewBox="0 0 22.578 19.497">
  <path class="fill stroke" d="M-373.875-1073.381v1.135h.253c1.582,0,3.163.012,4.745-.007.571-.007.741.313.656.793a4.331,4.331,0,0,1-1.076,2.1c-.683.78-.444.658-1.459.659q-9.112,0-18.224,0c-.5,0-.618-.087-.731-.568q-.274-1.163-.544-2.328a.487.487,0,0,1,.518-.652c1.222,0,2.444,0,3.666,0h.272v-.845c-.313-.017-.633-.029-.952-.053a2.244,2.244,0,0,1-1.891-1.707.86.86,0,0,0-.235-.445,1.491,1.491,0,0,1-.315-.715,20.467,20.467,0,0,1-.3-2.238,37.943,37.943,0,0,1,.144-5.342c.081-.981.184-1.96.278-2.94.045-.474.129-.577.587-.693a14.144,14.144,0,0,1,4.1-.457,6.683,6.683,0,0,1,2.431.512,3.906,3.906,0,0,1,1.809,1.6,16.081,16.081,0,0,0,2.594,3.294,13.722,13.722,0,0,0,5.412,3.14,3.847,3.847,0,0,1,2.019,1.328,2.824,2.824,0,0,1-.707,4.023,2.581,2.581,0,0,1-1.5.4C-372.834-1073.388-373.343-1073.381-373.875-1073.381Zm-14.634-7.076a12.674,12.674,0,0,1,3.437.655,6.161,6.161,0,0,1,2.586,1.615,4.258,4.258,0,0,1,1.087,2.437.268.268,0,0,0,.1.187c.377.192.755.383,1.144.549a7.051,7.051,0,0,0,2.442.467c1.808.088,3.619.127,5.429.177a1.561,1.561,0,0,0,1.064-.34,1.844,1.844,0,0,0,.557-2.01,2.182,2.182,0,0,0-1.731-1.382,20.378,20.378,0,0,1-3.268-.385,11.729,11.729,0,0,1-7.106-4.785,19.824,19.824,0,0,1-1.876-3.239c-.055-.118-.11-.194-.266-.193a14.022,14.022,0,0,0-3.051.373.238.238,0,0,0-.149.162q-.207,2.6-.4,5.2C-388.519-1080.806-388.509-1080.641-388.509-1080.457Zm-.661,9.2c.107.454.223.876.3,1.306.041.225.134.277.353.277q8.971-.01,17.942-.005a.57.57,0,0,0,.15,0,.368.368,0,0,0,.183-.085c.22-.274.443-.548.638-.84a5.974,5.974,0,0,0,.33-.649Zm6.755-4.593c-.067-.24-.108-.436-.177-.622a3.664,3.664,0,0,0-1.784-1.935,9.323,9.323,0,0,0-3.454-.986c-.231-.027-.464-.038-.717-.058a16.626,16.626,0,0,0,.263,3.08c.04.185.119.24.315.246q2.229.066,4.456.164C-383.164-1075.946-382.817-1075.891-382.414-1075.849Zm7.54,3.594v-1.119c-1.216-.083-2.414-.148-3.608-.253a6.106,6.106,0,0,1-2.572-.719c-.222-.128-.471-.209-.7-.319-.153-.072-.218-.026-.283.129a2.155,2.155,0,0,1-1.859,1.4c-.29.032-.584.029-.884.043v.84Zm-.8-7.307c-.089-.056-.177-.113-.266-.167a12.968,12.968,0,0,1-3.525-3.072c-.627-.793-1.183-1.643-1.761-2.473a3.417,3.417,0,0,0-2.373-1.33C-381.9-1083.155-379.56-1080.49-375.671-1079.562Z" transform="translate(390.528 1087.942)" fill="#efefef" stroke="#fff" stroke-width="0.5"/>
</svg>
