<svg id="ropeways" class="fill" xmlns="http://www.w3.org/2000/svg" width="22.327" height="21.333" viewBox="0 0 22.327 21.333">
  <path d="M-105.344-47.889a.754.754,0,0,0,.666-.833.755.755,0,0,0-.833-.666l-10.4,1.156h0l-10.414,1.157a.754.754,0,0,0-.666.833.754.754,0,0,0,.749.671.761.761,0,0,0,.084,0l9.572-1.063V-44.5H-123.3a.754.754,0,0,0-.617.321,13.672,13.672,0,0,0-2.5,7.9,13.672,13.672,0,0,0,2.5,7.9.754.754,0,0,0,.617.321h14.935a.754.754,0,0,0,.617-.321,13.672,13.672,0,0,0,2.5-7.9,13.672,13.672,0,0,0-2.5-7.9.754.754,0,0,0-.617-.321h-6.713v-2.3Zm-13.472,4.895h2.225v13.426h-2.225Zm-4.089,0h2.58v5.959h-4.555A12.212,12.212,0,0,1-122.9-42.994Zm-1.975,7.467h4.555v5.959h-2.58A12.212,12.212,0,0,1-124.88-35.527Zm16.111,5.959h-2.58v-5.959h4.555A12.212,12.212,0,0,1-108.769-29.568Zm1.975-7.467h-4.555v-5.959h2.58A12.212,12.212,0,0,1-106.794-37.035Zm-6.064-5.959v13.426h-2.225V-42.994Z" transform="translate(127 49.393)" fill="#fff"/>
</svg>
