<svg id="route" class="fill-stroke" xmlns="http://www.w3.org/2000/svg" width="45.904" height="24.744" viewBox="0 0 45.904 24.744">
  <g transform="translate(0 0)">
    <g transform="translate(0 0)">
      <g transform="translate(0 0)">
        <g transform="translate(0 0)">
          <g >
            <path class="fill" d="M163.609-50.585A7.82,7.82,0,0,0,157.089-54a7.82,7.82,0,0,0-6.519,3.415,7.931,7.931,0,0,0-.923,7.308,6.246,6.246,0,0,0,1.151,1.9l5.769,6.776a.686.686,0,0,0,.523.242.686.686,0,0,0,.523-.242l5.767-6.774a6.252,6.252,0,0,0,1.151-1.9A7.933,7.933,0,0,0,163.609-50.585Z" transform="translate(-149.144 54)" fill="#fff"/>
          </g>
        </g>
        <g transform="translate(4.1 4.075)">
          <g >
            <path  d="M259.858,52.219a3.846,3.846,0,1,0,3.846,3.846A3.85,3.85,0,0,0,259.858,52.219Zm0,6.318a2.472,2.472,0,1,1,2.472-2.472A2.475,2.475,0,0,1,259.858,58.537Z" transform="translate(-256.012 -52.219)" fill="#85cb3f"/>
          </g>
        </g>
      </g>
    </g>
    <g transform="translate(34 6.927)">
      <g transform="translate(0 0)">
        <g transform="translate(0 0)">
          <g >
            <path class="fill" d="M159.98-51.442A5.858,5.858,0,0,0,155.1-54a5.858,5.858,0,0,0-4.884,2.558,5.942,5.942,0,0,0-.692,5.475,4.679,4.679,0,0,0,.862,1.424l4.322,5.076a.514.514,0,0,0,.392.181.514.514,0,0,0,.392-.181l4.32-5.075a4.684,4.684,0,0,0,.862-1.422A5.943,5.943,0,0,0,159.98-51.442Z" transform="translate(-149.144 54)" fill="#fff"/>
          </g>
        </g>
        <g transform="translate(2.107 2.395)">
          <g >
            <path  d="M259.858,52.219a3.846,3.846,0,1,0,3.846,3.846A3.85,3.85,0,0,0,259.858,52.219Zm0,6.318a2.472,2.472,0,1,1,2.472-2.472A2.475,2.475,0,0,1,259.858,58.537Z" transform="translate(-256.012 -52.219)" fill="#85cb3f"/>
          </g>
        </g>
      </g>
    </g>
    <path class="stroke" d="M3286.892,875.692s-2.069,4.095,3.593,3.442,8.275-6.206,13.719-4.9,14.59,7.077,19.381,3.593" transform="translate(-3280.549 -854.962)" fill="none" stroke="#f9f9f9" stroke-linecap="round" stroke-width="1"/>
  </g>
</svg>
