<svg xmlns="http://www.w3.org/2000/svg" width="13.6" height="13.737" viewBox="0 0 13.6 13.737">
    <g id="Group_8314" data-name="Group 8314" transform="translate(228.291 38.5)">
        <path id="Path_25622" data-name="Path 25622" d="M-227.672-31.151h.57a.119.119,0,0,1,.119.119v5.649a.119.119,0,0,0,.119.119h10.743a.119.119,0,0,0,.119-.119v-5.649a.119.119,0,0,1,.119-.119h.57a.119.119,0,0,0,.119-.119v-3.791a.119.119,0,0,0-.119-.119h-4.418c-.092,0,3.1-1,1.714-2.381A1.548,1.548,0,0,0-219.122-38a2.292,2.292,0,0,0-1.589.7,3.2,3.2,0,0,0-.661,2,.119.119,0,0,1-.119.113h0a.119.119,0,0,1-.119-.113,3.2,3.2,0,0,0-.661-2,2.292,2.292,0,0,0-1.589-.7,1.548,1.548,0,0,0-1.107.438c-1.136,1.58,1.489,2.381,1.489,2.381h-4.193a.119.119,0,0,0-.119.119C-227.791-31.2-227.738-31.151-227.672-31.151Z" fill="none" stroke="#85cb3f" stroke-linejoin="round" stroke-miterlimit="10" stroke-width="1"/>
        <line id="Line_778" data-name="Line 778" x2="11.064" transform="translate(-226.952 -31.108)" fill="none" stroke="#85cb3f" stroke-miterlimit="10" stroke-width="1"/>
        <line id="Line_779" data-name="Line 779" y2="9.676" transform="translate(-221.497 -35.021)" fill="none" stroke="#85cb3f" stroke-miterlimit="10" stroke-width="1"/>
    </g>
</svg>