<svg id="stadium" class="fill" xmlns="http://www.w3.org/2000/svg" width="28.403" height="18.647" viewBox="0 0 28.403 18.647">
  <path d="M1051.871,31.465h4.714a9.2,9.2,0,0,1,6.7,2.713,9.3,9.3,0,0,1-5.207,15.814,11.766,11.766,0,0,1-1.684.11c-3.05.01-6.1,0-9.15.007a9.436,9.436,0,0,1-4.489-1.028,9.212,9.212,0,0,1-4.45-4.927,9.042,9.042,0,0,1,.036-6.839,9.17,9.17,0,0,1,3.621-4.367,9.363,9.363,0,0,1,5.28-1.486C1048.783,31.473,1050.327,31.465,1051.871,31.465Zm-.041,17.754q2.371,0,4.742,0a8.461,8.461,0,0,0,8.293-6.257,7.963,7.963,0,0,0-1.157-6.878,8.256,8.256,0,0,0-7.136-3.727c-3.143-.011-6.286,0-9.429,0a8.461,8.461,0,0,0-8.293,6.257,7.963,7.963,0,0,0,1.157,6.878,8.27,8.27,0,0,0,7.136,3.728C1048.706,49.226,1050.268,49.219,1051.83,49.219Z" transform="translate(-1037.649 -31.463)" fill="#fff"/>
  <path d="M1118.617,91.045H1111.3a1.361,1.361,0,0,1-1.527-1.517q0-4.256,0-8.512a1.356,1.356,0,0,1,1.5-1.512h14.747a1.353,1.353,0,0,1,1.5,1.489q0,4.284,0,8.568a1.349,1.349,0,0,1-1.476,1.484Q1122.332,91.047,1118.617,91.045Zm-7.952-8.878c.732,0,1.425,0,2.117,0,.366,0,.538.164.538.519q.006,2.592,0,5.185a.456.456,0,0,1-.521.508c-.619.006-1.238,0-1.857,0-.089,0-.178.008-.259.012a.425.425,0,0,0-.02.076c0,.342,0,.684,0,1.026,0,.527.131.66.65.66h6.872V88.35a3.131,3.131,0,0,1-2.634-2.955,2.975,2.975,0,0,1,.457-1.742,3.126,3.126,0,0,1,2.18-1.45V80.393h-5.139c-.619,0-1.238,0-1.857,0-.317,0-.508.144-.52.42C1110.652,81.255,1110.666,81.7,1110.666,82.168Zm15.968,0c0-.4,0-.763,0-1.13,0-.506-.136-.644-.638-.644h-6.625c-.089,0-.177.008-.263.012v1.788a3.124,3.124,0,0,1,.007,6.171v1.791h7.035a.518.518,0,0,0,.11-.011.4.4,0,0,0,.359-.37c.019-.457.006-.916.006-1.392h-2.017c-.491,0-.635-.14-.635-.619q0-2.5,0-4.991c0-.452.149-.6.594-.6C1125.24,82.166,1125.914,82.167,1126.634,82.167Zm-14.218,5.313v-4.4h-1.741v4.4Zm12.457-.005h1.74v-4.4h-1.74ZM1118.2,83.12a2.2,2.2,0,0,0-1.755,2.327A2.129,2.129,0,0,0,1118.2,87.4Zm.9,4.31a2.2,2.2,0,0,0,1.755-2.328,2.128,2.128,0,0,0-1.755-1.955Z" transform="translate(-1104.439 -75.952)" fill="#fff"/>
  <path d="M1068.137,49.477q2.371,0,4.741,0a8.39,8.39,0,0,1,3.215.62c.292.119.409.292.364.542a.436.436,0,0,1-.648.3,7.585,7.585,0,0,0-2.142-.533c-.267-.021-.535-.036-.8-.036-3.152,0-6.3-.014-9.455,0a7,7,0,0,0-6.316,3.577,7.106,7.106,0,0,0,.351,7.6,6.98,6.98,0,0,0,4.178,2.814,8.079,8.079,0,0,0,1.729.2c3.189.018,6.377.014,9.566.007a7.064,7.064,0,0,0,6.843-4.931,6.9,6.9,0,0,0-.542-5.6c-.066-.122-.145-.238-.2-.364a.435.435,0,0,1,.177-.577.417.417,0,0,1,.6.173,11.281,11.281,0,0,1,.749,1.571,7.942,7.942,0,0,1-3.036,9.225,7.8,7.8,0,0,1-4.537,1.394c-3.226.006-6.452.048-9.677-.011a7.98,7.98,0,0,1-6.059-13.2,7.723,7.723,0,0,1,6.162-2.77C1064.976,49.472,1066.556,49.477,1068.137,49.477Z" transform="translate(-1053.921 -48.143)" fill="#fff"/>
  <path d="M1351.2,70.791a2.709,2.709,0,0,1-.374-.209c-.273-.22-.537-.451-.8-.681a.446.446,0,0,1-.108-.637.433.433,0,0,1,.66-.053,7.616,7.616,0,0,1,.873.765.609.609,0,0,1,.1.495C1351.519,70.6,1351.332,70.681,1351.2,70.791Z" transform="translate(-1326.745 -66.302)" fill="#fff"/>
</svg>
