<svg id="tennis" class="fill-stroke" xmlns="http://www.w3.org/2000/svg" width="26.604" height="26.604" viewBox="0 0 26.604 26.604">
  <path class="fill stroke" d="M3.915-47A10.927,10.927,0,0,0-7-36.084,10.928,10.928,0,0,0,3.915-25.169,10.928,10.928,0,0,0,14.83-36.084,10.928,10.928,0,0,0,3.915-47ZM-5.509-36.084a9.388,9.388,0,0,1,2.473-6.357,9.312,9.312,0,0,1,2.47,6.357,9.31,9.31,0,0,1-2.47,6.357A9.388,9.388,0,0,1-5.509-36.084Zm3.563,7.374A10.952,10.952,0,0,0,.926-36.084a10.953,10.953,0,0,0-2.872-7.374,9.377,9.377,0,0,1,5.861-2.05,9.378,9.378,0,0,1,5.861,2.05A10.952,10.952,0,0,0,6.9-36.084,10.952,10.952,0,0,0,9.776-28.71a9.379,9.379,0,0,1-5.861,2.05A9.377,9.377,0,0,1-1.946-28.71Zm12.812-1.017A9.312,9.312,0,0,1,8.4-36.084a9.311,9.311,0,0,1,2.47-6.357,9.388,9.388,0,0,1,2.474,6.357A9.386,9.386,0,0,1,10.866-29.727Z" transform="matrix(0.978, 0.208, -0.208, 0.978, 1.97, 47.783)" fill="#fff" stroke="#fff" stroke-width="0.6"/>
</svg>
