<svg xmlns="http://www.w3.org/2000/svg" width="22.88" height="20.951" viewBox="0 0 22.88 20.951">
    <g id="Group_7599" data-name="Group 7599" transform="translate(0 -20.238)">
        <g id="Group_7554" data-name="Group 7554" transform="translate(1.298 24.79)">
            <g id="Group_7553" data-name="Group 7553">
                <path id="Path_25294" data-name="Path 25294" d="M47.994,120.881a.381.381,0,0,0-.517-.139h0l-2.91,1.68a.365.365,0,0,0-.062-.094l-2.669-2.669a.381.381,0,0,0-.521-.018l-3.051,2.669a.381.381,0,0,0,.5.577l0,0,2.784-2.435,2.355,2.355L36.99,126.8v-6.106h.051a1.152,1.152,0,0,0,0-2.3H36.99v-1.132a.381.381,0,0,0-.763,0v1.132H34.716l-1.92-2.074v-.2a.381.381,0,0,0-.381-.381H30.126a.381.381,0,0,0-.381.381v4.566a11.367,11.367,0,0,1-2.286,6.82.392.392,0,0,0-.027.041,1.543,1.543,0,0,0,.558,2.095,1.51,1.51,0,0,0,.763.206,1.526,1.526,0,0,0,.4-.052,1.491,1.491,0,0,0,.912-.691l.623-.908a12.009,12.009,0,0,0,1.708-3.746l.785.4v1.186a1.144,1.144,0,0,0,2.288,0v-2.574a.381.381,0,0,0-.191-.33l-2.491-1.435c0-.109.012-.217.012-.325v-2l1.119,1.208a.381.381,0,0,0,.28.122h2.033v6.464a.357.357,0,0,0,.015.073l-7.26,4.191a.381.381,0,0,0,.377.663l0,0L47.858,121.4A.381.381,0,0,0,47.994,120.881Zm-17.941,6.881-.64.934a.757.757,0,0,1-1.031.288l-.009-.005a.778.778,0,0,1-.29-1.037,12.134,12.134,0,0,0,2.392-6.487h1.554A11.257,11.257,0,0,1,30.053,127.762Zm1.98-7.071H30.508V116.5h1.525Zm2.669,2.985v2.354a.381.381,0,0,1-.763,0v-1.421a.381.381,0,0,0-.21-.34l-1.163-.587c.073-.376.13-.757.167-1.141Zm-.343-3.749L32.8,118.239v-.8l1.474,1.592a.381.381,0,0,0,.28.122h1.937a.317.317,0,0,0,.244,0h.31a.392.392,0,0,1,0,.775Z" transform="translate(-27.229 -115.734)" fill="#85cb3f"/>
            </g>
        </g>
        <g id="Group_7556" data-name="Group 7556" transform="translate(3.816 20.238)">
            <g id="Group_7555" data-name="Group 7555">
                <path id="Path_25295" data-name="Path 25295" d="M84.626,21.751h-.8a1.919,1.919,0,1,0,0,.763h.8a.381.381,0,1,0,0-.763Zm-2.669,1.538a1.144,1.144,0,0,1-1.075-.775h2.15A1.144,1.144,0,0,1,81.957,23.289Zm-1.075-1.538a1.133,1.133,0,0,1,2.15,0Z" transform="translate(-80.053 -20.238)" fill="#85cb3f"/>
            </g>
        </g>
        <g id="Group_7558" data-name="Group 7558" transform="translate(0 22.883)">
            <g id="Group_7557" data-name="Group 7557" transform="translate(0 0)">
                <path id="Path_25296" data-name="Path 25296" d="M1.525,75.734A1.525,1.525,0,0,0,0,77.259v3.432a2.673,2.673,0,0,0,2.669,2.669.381.381,0,0,0,.381-.381v-5.72A1.525,1.525,0,0,0,1.525,75.734Zm.763,6.826A1.91,1.91,0,0,1,.763,80.691V77.259a.763.763,0,1,1,1.525,0Z" transform="translate(0 -75.734)" fill="#85cb3f"/>
            </g>
        </g>
        <g id="Group_7560" data-name="Group 7560" transform="translate(17.541 25.934)">
            <g id="Group_7559" data-name="Group 7559">
                <path id="Path_25297" data-name="Path 25297" d="M369.525,139.734a1.525,1.525,0,1,0,1.525,1.525A1.525,1.525,0,0,0,369.525,139.734Zm0,2.288a.763.763,0,1,1,.763-.763A.763.763,0,0,1,369.525,142.022Z" transform="translate(-368 -139.734)" fill="#85cb3f"/>
            </g>
        </g>
        <g id="Group_7562" data-name="Group 7562" transform="translate(20.06 23.94)">
            <g id="Group_7561" data-name="Group 7561">
                <path id="Path_25298" data-name="Path 25298" d="M421.811,97.964h0a.381.381,0,0,0-.523.133h0l-.392.662a.381.381,0,0,0,.656.389l.392-.661A.381.381,0,0,0,421.811,97.964Z" transform="translate(-420.841 -97.909)" fill="#85cb3f"/>
            </g>
        </g>
        <g id="Group_7564" data-name="Group 7564" transform="translate(21.039 25.296)">
            <g id="Group_7563" data-name="Group 7563">
                <path id="Path_25299" data-name="Path 25299" d="M442.755,126.543a.381.381,0,0,0-.507-.143l-.679.381a.381.381,0,0,0-.146.519h0a.381.381,0,0,0,.519.146l.679-.381A.381.381,0,0,0,442.755,126.543Z" transform="translate(-441.374 -126.356)" fill="#85cb3f"/>
            </g>
        </g>
        <g id="Group_7566" data-name="Group 7566" transform="translate(21.334 27.078)">
            <g id="Group_7565" data-name="Group 7565">
                <path id="Path_25300" data-name="Path 25300" d="M448.725,163.734h-.784a.381.381,0,0,0,0,.763h.784a.381.381,0,1,0,0-.763Z" transform="translate(-447.56 -163.734)" fill="#85cb3f"/>
            </g>
        </g>
        <g id="Group_7568" data-name="Group 7568" transform="translate(15.232 27.078)">
            <g id="Group_7567" data-name="Group 7567">
                <path id="Path_25301" data-name="Path 25301" d="M320.725,163.734h-.784a.381.381,0,0,0,0,.763h.784a.381.381,0,1,0,0-.763Z" transform="translate(-319.56 -163.734)" fill="#85cb3f"/>
            </g>
        </g>
        <g id="Group_7570" data-name="Group 7570" transform="translate(15.635 25.198)">
            <g id="Group_7569" data-name="Group 7569">
                <path id="Path_25302" data-name="Path 25302" d="M329.244,124.737l-.679-.381a.381.381,0,0,0-.374.665l.678.381a.382.382,0,1,0,.374-.665Z" transform="translate(-327.997 -124.307)" fill="#85cb3f"/>
            </g>
        </g>
        <g id="Group_7572" data-name="Group 7572" transform="translate(16.925 23.94)">
            <g id="Group_7571" data-name="Group 7571" transform="translate(0 0)">
                <path id="Path_25303" data-name="Path 25303" d="M356.176,98.762l-.392-.662a.381.381,0,1,0-.656.389l.392.661a.381.381,0,0,0,.656-.387Z" transform="translate(-355.075 -97.913)" fill="#85cb3f"/>
            </g>
        </g>
        <g id="Group_7574" data-name="Group 7574" transform="translate(18.689 23.481)">
            <g id="Group_7573" data-name="Group 7573">
                <path id="Path_25304" data-name="Path 25304" d="M392.453,88.27a.381.381,0,0,0-.381.381v.763a.381.381,0,0,0,.763,0v-.763A.381.381,0,0,0,392.453,88.27Z" transform="translate(-392.072 -88.27)" fill="#85cb3f"/>
            </g>
        </g>
    </g>
</svg>
