<svg id="trainer" class="fill" xmlns="http://www.w3.org/2000/svg" width="28.95" height="26.046" viewBox="0 0 28.95 26.046">
  <path d="M-422.573,11.963a.779.779,0,0,0-.991.48c-.425,1.222-1.861,1.419-5.132,1.419a.779.779,0,0,0-.779.779.779.779,0,0,0,.779.779c.43,0,.863,0,1.29-.009l-2.466,10.123-.915-.111a.748.748,0,0,0-.838.541,2.294,2.294,0,0,1-.761.924,6,6,0,0,1-3.659.975,7.806,7.806,0,0,1-4.276-1.756,8.33,8.33,0,0,0-4.564-1.847c-.142,0-.284.026-.425.038l-1.373-5.6h1.425a.779.779,0,0,0,.779-.779.779.779,0,0,0-.779-.779h-4.867a.779.779,0,0,0-.779.779.779.779,0,0,0,.779.779h1.839l1.459,5.959a7.173,7.173,0,0,0-.818.363,5.014,5.014,0,0,0-2.594,3.614,8.646,8.646,0,0,0,.344,4.265,18.021,18.021,0,0,0,1.641,3.513h-1.968a.779.779,0,0,0-.779.779.779.779,0,0,0,.779.779h23.554a.779.779,0,0,0,.779-.779.779.779,0,0,0-.779-.779h-2.007l2.185-9.578a.8.8,0,0,0-.122-.631.785.785,0,0,0-.543-.33l-1.16-.143,2.536-10.412c1.7-.2,3.129-.759,3.686-2.359A.779.779,0,0,0-422.573,11.963Zm-24.341,14.419a4.3,4.3,0,0,1,2.03-.564,7.087,7.087,0,0,1,3.705,1.588,10.166,10.166,0,0,0,4.465,1.977,3.674,3.674,0,0,0-2.73,3.548,3.679,3.679,0,0,0,2.494,3.477h-9.441a17.637,17.637,0,0,1-2.024-4C-449.5,29.134-448.282,27.107-446.914,26.382Zm10.335,6.791a.779.779,0,0,0,.742.543.777.777,0,0,0,.236-.037l1.881-.6A2.089,2.089,0,0,1-435.8,35a2.09,2.09,0,0,1-2.088-2.088,2.09,2.09,0,0,1,2.088-2.088,2.084,2.084,0,0,1,1.618.771l-1.892.6A.779.779,0,0,0-436.579,33.173Zm1.932,3.235a3.679,3.679,0,0,0,2.494-3.477c0-.109-.006-.226-.015-.332l1.536-.5a.77.77,0,0,0,.527-.747V29.848a.779.779,0,0,0-.779-.779.779.779,0,0,0-.779.779v.936l-.989.319a3.641,3.641,0,0,0-2.3-1.735c2.792-.271,4.021-1.551,4.515-2.334l2.237.291-2.069,9.083h-4.376Z" transform="translate(451 -11.919)" fill="#fff"/>
</svg>
