<svg id="user" class="stroke" xmlns="http://www.w3.org/2000/svg" width="25.5" height="25.5" viewBox="0 0 25.5 25.5">
  <path d="M24,12A12,12,0,1,0,3.895,20.84l-.011.01.389.328c.025.021.053.039.078.06.207.171.421.334.639.492.071.051.141.1.213.152q.35.241.717.457l.161.093c.267.152.541.3.82.428l.062.028a11.892,11.892,0,0,0,2.9.919l.08.014c.316.055.635.1.959.127l.118.009c.322.027.648.044.977.044s.649-.017.97-.043l.122-.009q.481-.044.95-.125l.082-.015a11.891,11.891,0,0,0,2.861-.9l.1-.045q.4-.19.79-.408l.192-.11c.235-.138.466-.283.69-.436.081-.055.16-.113.24-.171.192-.138.38-.28.562-.429.041-.033.084-.061.124-.095l.4-.333-.012-.01A11.969,11.969,0,0,0,24,12ZM.873,12a11.127,11.127,0,1,1,18.507,8.318,3.27,3.27,0,0,0-.39-.234l-3.695-1.847a.967.967,0,0,1-.538-.87v-1.29c.086-.106.176-.225.269-.357a8.892,8.892,0,0,0,1.142-2.235,1.584,1.584,0,0,0,.91-1.435V10.5a1.588,1.588,0,0,0-.387-1.034V7.433a3.52,3.52,0,0,0-.822-2.559A4.912,4.912,0,0,0,12,3.491,4.913,4.913,0,0,0,8.131,4.873a3.52,3.52,0,0,0-.822,2.559V9.469A1.59,1.59,0,0,0,6.922,10.5v1.547a1.587,1.587,0,0,0,.585,1.231,8.2,8.2,0,0,0,1.35,2.788v1.263a.973.973,0,0,1-.507.854L4.9,20.067a3.153,3.153,0,0,0-.328.208A11.1,11.1,0,0,1,.873,12Zm17.655,9c-.153.111-.308.218-.466.321-.072.047-.144.094-.218.14-.206.127-.415.249-.629.362l-.142.073a11.119,11.119,0,0,1-1.522.644l-.055.019q-.41.136-.831.241h0c-.283.07-.569.128-.857.175l-.024,0c-.271.044-.544.076-.818.1l-.146.011c-.271.021-.543.034-.817.034s-.552-.014-.827-.034l-.142-.011c-.277-.024-.552-.057-.825-.1l-.037-.007a11.085,11.085,0,0,1-1.7-.424l-.051-.017q-.412-.14-.813-.311l-.006,0c-.252-.109-.5-.229-.744-.356l-.1-.049c-.223-.119-.441-.248-.656-.382l-.19-.122c-.2-.13-.394-.264-.584-.407l-.058-.045.042-.024,3.45-1.882a1.845,1.845,0,0,0,.962-1.621V15.759l-.1-.121a7.286,7.286,0,0,1-1.31-2.712l-.04-.173-.149-.1a.723.723,0,0,1-.336-.607V10.5a.713.713,0,0,1,.243-.534l.144-.13V7.408l0-.057a2.628,2.628,0,0,1,.609-1.9A4.112,4.112,0,0,1,12,4.364,4.122,4.122,0,0,1,15.206,5.44a2.672,2.672,0,0,1,.617,1.912l0,2.488.144.13a.713.713,0,0,1,.243.534V12.05a.729.729,0,0,1-.515.687l-.217.067-.07.216a8.073,8.073,0,0,1-1.089,2.2c-.114.161-.226.3-.321.414l-.108.123v1.614a1.835,1.835,0,0,0,1.02,1.65L18.6,20.865l.07.036C18.623,20.936,18.575,20.969,18.528,21Z" transform="translate(0.75 0.75)" fill="none" stroke="#324655" stroke-width="1.5"/>
</svg>
