<svg xmlns="http://www.w3.org/2000/svg" width="14.496" height="23.194" viewBox="0 0 14.496 23.194">
  <path id="Icon_awesome-walking" data-name="Icon awesome-walking" d="M9.422,4.348A2.174,2.174,0,1,0,7.248,2.174,2.175,2.175,0,0,0,9.422,4.348ZM13.7,11.1l-1.055-.534-.439-1.332A4.938,4.938,0,0,0,7.578,5.8,9.96,9.96,0,0,0,3.352,6.939,4.32,4.32,0,0,0,1.1,9.032l-.3.616a1.454,1.454,0,0,0,.643,1.943,1.43,1.43,0,0,0,1.925-.648l.3-.616a1.44,1.44,0,0,1,.747-.7L5.631,9.14,4.942,11.89a2.909,2.909,0,0,0,.675,2.663L8.33,17.515a2.923,2.923,0,0,1,.675,1.255l.829,3.32a1.45,1.45,0,1,0,2.813-.7l-1.006-4.031a2.9,2.9,0,0,0-.675-1.255L8.905,13.851l.779-3.112.249.747a2.889,2.889,0,0,0,1.436,1.676l1.055.534a1.43,1.43,0,0,0,1.925-.648A1.466,1.466,0,0,0,13.7,11.1ZM3.334,17.474a2.811,2.811,0,0,1-.643.974L.426,20.717a1.449,1.449,0,0,0,2.047,2.052l2.69-2.69a2.944,2.944,0,0,0,.643-.974l.611-1.531c-2.5-2.731-1.753-1.893-2.147-2.432l-.938,2.333Z" transform="translate(-0.002)" fill="#ce372f"/>
</svg>
