<svg id="www" class="fill" xmlns="http://www.w3.org/2000/svg" width="17.044" height="11.651" viewBox="0 0 17.044 11.651">
  <g transform="translate(0)">
    <g transform="translate(0 0)">
      <g transform="translate(0 0)">
        <path d="M36.546,136H22.5a1.5,1.5,0,0,0-1.5,1.5v8.655a1.5,1.5,0,0,0,1.5,1.5H36.546a1.5,1.5,0,0,0,1.5-1.5V137.5A1.5,1.5,0,0,0,36.546,136Zm.5,10.153a.5.5,0,0,1-.5.5H22.5a.5.5,0,0,1-.5-.5V137.5a.5.5,0,0,1,.5-.5H36.546a.5.5,0,0,1,.5.5Z" transform="translate(-21 -136)" fill="#324655"/>
      </g>
    </g>
  </g>
  <g transform="translate(2.599 4.776)">
    <path d="M84.457,156.439a.309.309,0,0,0,.258-.218l.711-2.373a.309.309,0,1,0-.592-.177l-.51,1.7-.491-.82a.309.309,0,0,0-.53,0l-.491.82-.51-1.7a.309.309,0,1,0-.592.177l.711,2.373a.309.309,0,0,0,.258.218l.038,0a.309.309,0,0,0,.265-.15l.586-.979.586.979a.309.309,0,0,0,.3.148Z" transform="translate(-81.695 -153.451)" fill="#324655"/>
    <path d="M183.517,156.432l.038,0a.309.309,0,0,0,.265-.15l.586-.979.586.979a.309.309,0,0,0,.561-.07l.711-2.373a.309.309,0,1,0-.592-.177l-.51,1.7-.491-.82a.309.309,0,0,0-.53,0l-.491.82-.51-1.7a.309.309,0,1,0-.592.177l.711,2.373A.309.309,0,0,0,183.517,156.432Z" transform="translate(-178.381 -153.443)" fill="#324655"/>
    <path d="M286.894,153.451a.309.309,0,0,0-.385.207l-.51,1.7-.491-.82a.309.309,0,0,0-.53,0l-.491.82-.51-1.7a.309.309,0,1,0-.592.177l.711,2.373a.309.309,0,0,0,.561.07l.586-.979.586.979a.309.309,0,0,0,.265.15l.038,0a.309.309,0,0,0,.258-.218l.711-2.373A.309.309,0,0,0,286.894,153.451Z" transform="translate(-275.062 -153.438)" fill="#324655"/>
  </g>
</svg>
