<svg id="youtube" class="fill" xmlns="http://www.w3.org/2000/svg" width="14.152" height="16.773" viewBox="0 0 14.152 16.773">
  <g transform="translate(0 0)">
    <g transform="translate(0)">
      <path d="M36.428,41.44a.621.621,0,0,0-.428.207V44.53a.616.616,0,0,0,.428.211c.247,0,.373-.211.373-.638V42.085C36.8,41.658,36.675,41.44,36.428,41.44Z" transform="translate(-27.897 -30.573)" fill="#324655"/>
      <path d="M48.389,41.44c-.286,0-.43.218-.43.656v.438h.858V42.1C48.817,41.658,48.674,41.44,48.389,41.44Z" transform="translate(-36.722 -30.573)" fill="#324655"/>
      <g>
        <path d="M18.529,26.975a2.027,2.027,0,0,0-1.419-.6c-1.98-.142-4.95-.142-4.95-.142h-.007s-2.97,0-4.952.142a2.028,2.028,0,0,0-1.418.6,3.039,3.039,0,0,0-.563,1.4,21.3,21.3,0,0,0-.14,2.276v1.067a21.312,21.312,0,0,0,.14,2.276,3.029,3.029,0,0,0,.563,1.394,2.407,2.407,0,0,0,1.56.6c1.133.108,4.813.141,4.813.141s2.974,0,4.954-.147a2.026,2.026,0,0,0,1.419-.6,3.026,3.026,0,0,0,.563-1.394,21.312,21.312,0,0,0,.14-2.276V30.647a21.3,21.3,0,0,0-.14-2.276A3.037,3.037,0,0,0,18.529,26.975ZM8.2,34.236H7.244V28.784H6.235v-.893H9.226v.893H8.2v5.452Zm3.384,0h-.859V33.72a1.378,1.378,0,0,1-.981.582.529.529,0,0,1-.553-.353,2.42,2.42,0,0,1-.075-.7V29.508h.858v3.48a3.285,3.285,0,0,0,.006.333c.022.133.088.2.2.2.172,0,.351-.133.542-.4V29.508h.859v4.727Zm3.26-1.418a3.742,3.742,0,0,1-.087.952.679.679,0,0,1-.685.532,1.169,1.169,0,0,1-.888-.524v.458h-.859V27.891h.859v2.072a1.162,1.162,0,0,1,.888-.513.68.68,0,0,1,.685.534,3.62,3.62,0,0,1,.087.951Zm3.192-.79H16.318v.838c0,.438.144.657.438.657a.369.369,0,0,0,.383-.344,5.557,5.557,0,0,0,.019-.582h.876v.126c0,.275-.011.465-.019.552a1.207,1.207,0,0,1-.2.512,1.188,1.188,0,0,1-1.039.514,1.227,1.227,0,0,1-1.038-.486,1.826,1.826,0,0,1-.275-1.111V31.048a1.843,1.843,0,0,1,.265-1.114,1.221,1.221,0,0,1,1.028-.485,1.192,1.192,0,0,1,1.012.485,1.859,1.859,0,0,1,.266,1.114v.98Z" transform="translate(-5.08 -19.355)" fill="#324655"/>
        <path d="M17.334,6.384v-2.6L18.49-.026h-.972l-.656,2.517L16.179-.026H15.167c.2.594.414,1.191.617,1.786a15.977,15.977,0,0,1,.588,2.027v2.6h.962Z" transform="translate(-12.523 0.026)" fill="#324655"/>
        <path d="M28.44,10.888a1.185,1.185,0,0,0,1.011-.489,1.867,1.867,0,0,0,.27-1.124V7.6a1.874,1.874,0,0,0-.27-1.124,1.287,1.287,0,0,0-2.021,0A1.845,1.845,0,0,0,27.159,7.6V9.276A1.839,1.839,0,0,0,27.43,10.4,1.182,1.182,0,0,0,28.44,10.888Zm-.414-3.459c0-.442.135-.663.414-.663s.412.221.412.663v2.01c0,.442-.134.663-.412.663s-.414-.221-.414-.663Z" transform="translate(-21.373 -4.412)" fill="#324655"/>
        <path d="M41.967,10.981V6.2H41.1V9.855q-.288.406-.547.406c-.117,0-.186-.069-.2-.2a1.929,1.929,0,0,1-.011-.337V6.2h-.865V9.982a2.385,2.385,0,0,0,.077.71.534.534,0,0,0,.559.355,1.4,1.4,0,0,0,.991-.587v.521Z" transform="translate(-30.46 -4.571)" fill="#324655"/>
      </g>
    </g>
  </g>
</svg>
