<svg xmlns="http://www.w3.org/2000/svg" width="92" height="43.227" viewBox="0 0 92 43.227"><g transform="translate(0 0)"><path d="M-468.8-206.729a1.955,1.955,0,0,0-1.015-.132,3.613,3.613,0,0,0-3.353,4.163,4.735,4.735,0,0,0,3.2,3.95c.081.032.167.051.23.07.037-.025.047-.029.051-.036.2-.367.305-.4.656-.18a2.8,2.8,0,0,0,1.307.418c.235.019.47.038.7.07.281.037.415.168.41.447a3.887,3.887,0,0,1-.086.753c-.124.576-.278,1.145-.4,1.72a5.757,5.757,0,0,0-.119,1.7c0,.053,0,.106,0,.2-.1,0-.187.006-.272,0-.37-.031-.74-.064-1.111-.1-.257-.023-.257-.025-.3-.287q-.239-1.366-.482-2.731c-.016-.088-.04-.175-.067-.293-.131.011-.254.017-.376.032-.719.087-1.438.187-2.159.26-.294.03-.593,0-.921,0a12.666,12.666,0,0,1-.091,3.331c.962.035,1.892.071,2.822.1s1.859.054,2.789.08l.014.055a.78.78,0,0,1-.149.066q-3.426.756-6.852,1.505c-.327.071-.661.108-.994.151a1.045,1.045,0,0,1-1.163-.867,1.009,1.009,0,0,1,.253-.778c.163-.228.35-.439.527-.658a5.934,5.934,0,0,0,.813-1.251,3.2,3.2,0,0,0,.307-1.6c-.093.051-.161.082-.222.123a4.3,4.3,0,0,1-1.212.6,2.6,2.6,0,0,1-2.248-.263,3.506,3.506,0,0,1-1.322-1.653,3.594,3.594,0,0,1-.161-.462,6.329,6.329,0,0,1-.267-1.41.434.434,0,0,0-.032-.1,1.66,1.66,0,0,0-.153.105c-.291.258-.293.26-.59.031a13.558,13.558,0,0,1-2.682-2.76,13.13,13.13,0,0,1-2.321-5.339c-.074-.39-.1-.789-.142-1.184-.011-.1-.019-.2-.032-.332l-.3.063c-.54.118-1.076.257-1.62.345a2.592,2.592,0,0,1-.836-.019.645.645,0,0,1-.57-.785,1.11,1.11,0,0,1,.271-.67,8.135,8.135,0,0,1,.829-.819,12.489,12.489,0,0,1,1.154-.816,37.188,37.188,0,0,1,5.034-2.62,115.523,115.523,0,0,1,12.712-4.7c2.035-.626,4.082-1.21,6.169-1.638.913-.187,1.837-.329,2.76-.453a4.956,4.956,0,0,1,2.6.393c1.3.541,2.566,1.142,3.816,1.784,3,1.541,5.923,3.226,8.845,4.909.542.312,1.086.621,1.629.933.073.042.142.091.213.136l-.023.049c-.069-.01-.139-.016-.207-.031-1.1-.228-2.2-.449-3.3-.689a13.559,13.559,0,0,1-2.47-.836c-1.531-.662-3.05-1.352-4.575-2.027a31.4,31.4,0,0,0-3.607-1.374,1.612,1.612,0,0,0-1.478.171c-.835.542-1.72,1.007-2.584,1.5-.055.032-.113.059-.165.1a.192.192,0,0,1-.285-.045c-.058-.065-.128-.119-.2-.185a1.508,1.508,0,0,0-.133.126,2.377,2.377,0,0,1-.772.635c-.192.1-.311.214-.22.451-3.2,2.016-5.852-1.449-8.652,1.087l-11.973,4.1c.054-.011,3.658,1.01,3.709.991l1.935.431h3.682c.5-.129,4.815-.494,5.5-.506a4.891,4.891,0,0,1,2.4.506,3.149,3.149,0,0,1,1.622,1.82.769.769,0,0,1,.06.236.955.955,0,0,0,.371.712,4.912,4.912,0,0,1,1.447,3.446,3.529,3.529,0,0,1-.387,1.841,2.607,2.607,0,0,1-.992,1.058,5.056,5.056,0,0,1-2.478.731,3.4,3.4,0,0,1-3.009-1.552,4.778,4.778,0,0,1-.7-4.1,3.066,3.066,0,0,1,1.849-2.145C-468.894-206.681-468.847-206.706-468.8-206.729Zm4.07,4.1a2.319,2.319,0,0,0-1.823-2.3,2.106,2.106,0,0,0-2.062.524,2.33,2.33,0,0,0-.186,3.057,1.843,1.843,0,0,0,1.162.74,3.479,3.479,0,0,0,1.582-.123,1.556,1.556,0,0,0,1.15-1.086A7.492,7.492,0,0,0-464.728-202.625Zm-9.986,5.511c-.311,0-.592.02-.869,0a1.979,1.979,0,0,1-1.934-1.918,2.9,2.9,0,0,1,.017-.677,1.793,1.793,0,0,1,1.373-1.639.206.206,0,0,0,.026-.008c.238-.108.3-.368.463-.54.008-.008,0-.036,0-.052-.04-.125-.083-.249-.127-.379a3.08,3.08,0,0,0-1.155.537,3.41,3.41,0,0,0-1.053,3.829,2.164,2.164,0,0,0,2.691,1.434,1.974,1.974,0,0,0,.645-.24Zm-.195-.634a14.333,14.333,0,0,0-.888-2.528,1.353,1.353,0,0,0-.6,1.562A1.5,1.5,0,0,0-474.909-197.748Zm1.717-1.281.145,1,3.291-.11.005-.066A7.521,7.521,0,0,1-473.193-199.029Zm-3.062-5.438.047.059c.142-.031.329-.009.4-.154a2.79,2.79,0,0,0,.151-.554l-.064-.032Zm-7.059-5.661a10.683,10.683,0,0,1-2.525.532Z" transform="translate(489.346 229.051)" fill="#324655"/><path d="M-427.894-182.219l6.872,1.261c-.529-2.689-.915-5.347-1.229-8.045-.123.016-.221.019-.314.041-.759.175-1.524.332-2.275.538a1.1,1.1,0,0,1-1.418-.955,1.043,1.043,0,0,1,.346-.9,16.368,16.368,0,0,1,2.678-2.042c1.407-.878,2.831-1.73,4.251-2.588a3.147,3.147,0,0,1,1.353-.463,2.254,2.254,0,0,1,.673.035.612.612,0,0,1,.441.987,2.4,2.4,0,0,1-.325.433,4.912,4.912,0,0,1-1.042.825,16.4,16.4,0,0,1-3.041,1.445c-.73.271-1.474.507-2.212.76a.33.33,0,0,0-.162.1c.049,0,.1,0,.147,0a39.524,39.524,0,0,1,6.519.1c1.8.161,3.589.367,5.384.551.26.027.52.05.774.074a.369.369,0,0,0,.05-.091,2.508,2.508,0,0,1,.859-1.444,8.62,8.62,0,0,1,2.151-1.414,22.658,22.658,0,0,1,2.978-1.189,4.1,4.1,0,0,1,1.61-.184c2.016.148,4.032.3,6.049.429,2.279.149,4.56.278,6.84.421q3.976.25,7.952.512,1.452.095,2.9.208a.526.526,0,0,0,.4-.129q1.765-1.408,3.534-2.81c.7-.558,1.4-1.118,2.113-1.669q1.588-1.236,3.186-2.458c.194-.149.4-.285.6-.423a1.326,1.326,0,0,1,.181-.088l.039.044a2.8,2.8,0,0,1-.176.217q-.664.664-1.332,1.322c-.62.611-1.259,1.2-1.86,1.832-1.24,1.3-2.519,2.558-3.668,3.939-.18.216-.349.441-.529.656a.665.665,0,0,0-.161.472q.02,1.06.016,2.121c0,1.922-.054,3.843-.188,5.76-.112,1.6-.25,3.2-.377,4.8-.057.714-.108,1.428-.171,2.141-.022.252-.071.5-.111.752a1.261,1.261,0,0,1-.066.174.993.993,0,0,1-.072-.2c-.025-.271-.05-.542-.062-.813-.082-1.766-.137-3.532-.246-5.3-.132-2.134-.255-4.27-.5-6.4q-.148-1.27-.3-2.539c-.037-.321-.058-.347-.382-.364-.959-.052-1.919-.095-2.879-.147-1.8-.1-3.6-.2-5.4-.3-1.512-.083-3.023-.161-4.535-.244q-3.625-.2-7.25-.406-2.417-.136-4.834-.267a1.276,1.276,0,0,0-.429.049,7.219,7.219,0,0,0-2.835,1.559,2.853,2.853,0,0,0-.463.6.78.78,0,0,0-.048.706,1.081,1.081,0,0,1-.925,1.489,1.463,1.463,0,0,1-1.464-.738.352.352,0,0,0-.378-.223c-1,.022-1.995.021-2.991.054-1.639.054-3.278.123-4.917.2-.435.019-.867.071-1.3.112-.079.007-.156.029-.252.048-.272,2.753-.458,5.5-.5,8.254a.614.614,0,0,0,.391-.045q1.708-.505,3.413-1.021c.425-.129.843-.279,1.267-.412a2.065,2.065,0,0,1,.424-.086,23.958,23.958,0,0,1,5.963.229q.242.038.483.08a.515.515,0,0,1,.094.054,1.6,1.6,0,0,1-.214.046c-.869.046-1.739.087-2.608.133-.615.033-1.231.063-1.845.108a5.369,5.369,0,0,0-1.655.418l-4.274,1.763c-.218.09-.445.16-.656.262a2.621,2.621,0,0,1-1.543.178,8.651,8.651,0,0,1-2.01-.57,32.565,32.565,0,0,1-3.348-1.629c-.328-.175-.657-.348-.984-.523-.067-.036-.13-.08-.2-.12Z" transform="translate(461.033 219.391)" fill="#324655"/><path d="M-420.976-213.147a72.579,72.579,0,0,1,.758,9.677c.162.028.292.056.425.073a39.135,39.135,0,0,0,3.931.286c1.595.042,3.19.074,4.785.076.933,0,1.865-.065,2.8-.1.116,0,.232-.025.375-.042.024-.2.05-.383.07-.569.153-1.416.208-2.838.252-4.261.047-1.5.1-3.008.27-4.5.01-.088.024-.176.035-.259.022-.006.03-.011.036-.01a.038.038,0,0,1,.022.014.309.309,0,0,1,.022.049.112.112,0,0,1,.007.026c0,.018.007.036.009.053s.005.054.009.081c.064.53.11,1.064.194,1.592q.561,3.517,1.14,7.031a.35.35,0,0,0,.03.053c.084-.025.177-.047.267-.079q3.485-1.239,6.97-2.479,3.409-1.21,6.819-2.416c.115-.041.236-.068.388-.112-.049.154-.15.18-.233.22-.747.373-1.486.759-2.243,1.108q-5.149,2.375-10.306,4.732c-.593.272-1.184.549-1.782.812a2.994,2.994,0,0,1-.566.178,14.053,14.053,0,0,1-2.866.256c-1.387.013-2.774.007-4.161-.009-2.131-.025-4.259-.1-6.384-.27-.533-.043-1.065-.1-1.593-.184a1.025,1.025,0,0,1-.858-1.234c.126-.723.267-1.444.4-2.166.058-.321.108-.644.16-.966a1.188,1.188,0,0,0,0-.163c-.1.012-.183.016-.267.033-2.154.46-4.313.9-6.46,1.388-3.305.755-6.6,1.577-9.862,2.486-.821.229-1.631.492-2.445.743-.109.034-.212.089-.38.16a1.933,1.933,0,0,0,.234.061c1.805.166,3.611.335,5.417.491,1.752.152,3.506.284,5.258.432.985.083,1.968.181,2.952.273a.474.474,0,0,1,.246.082,1.067,1.067,0,0,1-.182.036c-1.005.024-2.011.052-3.017.065-1.233.016-2.466.018-3.7.029-.114,0-.229.016-.366.027a4.021,4.021,0,0,1,.028,1.855c-.205,2.575-.438,5.148-.658,7.722-.052.605-.093,1.211-.141,1.817a.554.554,0,0,1-.056.212,1.263,1.263,0,0,1-.089-.476c-.019-.162-.027-.325-.041-.487s-.03-.343-.046-.515-.033-.343-.051-.514-.033-.325-.052-.486-.043-.34-.064-.512c-.077-.021-.136-.042-.2-.053-1.176-.221-2.35-.452-3.529-.654a10.171,10.171,0,0,0-1.459-.139,1.893,1.893,0,0,0-1.741.97,6.565,6.565,0,0,0-.706,1.818c-.056.21-.1.424-.149.635a1.4,1.4,0,0,1-.081.182,2.323,2.323,0,0,1-.038-.264q-.011-1.726-.019-3.453a.619.619,0,0,1,.3-.551,4.039,4.039,0,0,1,.72-.373,10.38,10.38,0,0,1,2.253-.493c1.3-.18,2.617-.252,3.93-.319.123-.006.247-.016.4-.026-.011-.12-.017-.208-.027-.3q-.258-2.406-.518-4.812a1.3,1.3,0,0,1,.131-.776c-.134-.007-.228-.017-.322-.015q-2.27.044-4.539.091c-.136,0-.272.012-.408.01a1.083,1.083,0,0,1-1.019-.762,1.077,1.077,0,0,1,.416-1.227,9.377,9.377,0,0,1,1.6-.863c1.553-.685,3.148-1.257,4.752-1.809,4.219-1.452,8.483-2.757,12.773-3.98.462-.132.927-.253,1.39-.38.223-.061.23-.065.251-.289q.15-1.583.294-3.168c.013-.142.031-.285.047-.426Z" transform="translate(468.197 225.273)" fill="#324655"/><path d="M-399.347-233.7l-8.112,7.811-.05-.032c.049-.078.094-.159.148-.233.871-1.182,1.734-2.37,2.621-3.54.69-.91,1.4-1.8,2.12-2.692.813-1.009,1.643-2,2.458-3.012a.555.555,0,0,1,.465-.227c.679,0,1.359-.019,2.038,0,3.1.108,6.191.336,9.282.575,1.175.091,2.349.192,3.523.29.144.012.288.03.431.054a.248.248,0,0,1,.16.123,2.567,2.567,0,0,1-.3.06q-.962.074-1.926.137c-1.61.106-3.22.216-4.831.311-1.529.09-3.059.164-4.589.245l-.406.022c1.623,2.587,3.225,5.125,4.791,7.7a1.066,1.066,0,0,1-.135-.1q-1.689-1.657-3.376-3.316-1.971-1.932-3.945-3.861C-399.092-233.482-399.21-233.578-399.347-233.7Z" transform="translate(451.629 235.633)" fill="#324655"/><path d="M-362.748-219.327c-.162.047-.322.1-.486.139-1.052.234-2.1.473-3.159.7q-4.376.927-8.754,1.843c-.825.173-1.652.333-2.479.5a2.1,2.1,0,0,1-.215.036.824.824,0,0,1-.89-.528,1.462,1.462,0,0,1,.047-1.238.747.747,0,0,1,.668-.437q3.133-.217,6.265-.449c2.205-.164,4.41-.337,6.615-.506q1.058-.08,2.115-.153a2.311,2.311,0,0,1,.259.009Z" transform="translate(438.419 228.164)" fill="#324655"/><path d="M-388.909-170.086a.567.567,0,0,1-.24-.451c-.091-.471-.181-.943-.238-1.419a58.983,58.983,0,0,1-.379-8.272c.011-.534.048-1.068.09-1.6a1.075,1.075,0,0,1,1.457-.9.629.629,0,0,1,.424.459,1.629,1.629,0,0,1,.037.457c-.088,1.328-.187,2.656-.277,3.984-.14,2.069-.233,4.143-.48,6.2-.046.387-.117.77-.188,1.153A.523.523,0,0,1-388.909-170.086Z" transform="translate(443.459 211.285)" fill="#324655"/><path d="M-345.422-179.426c.065.122.122.212.164.309a10.722,10.722,0,0,1,.915,4.436,3.848,3.848,0,0,1-.231,1.278,1.974,1.974,0,0,1-1.811,1.376,4.637,4.637,0,0,1-1.74-.232c-.249-.075-.493-.165-.8-.271a1.478,1.478,0,0,1,.213-.1c.589-.144,1.18-.284,1.769-.428.149-.036.3-.078.444-.126a.5.5,0,0,0,.368-.458c.02-.234.031-.47.031-.7a27.518,27.518,0,0,1,.373-4.435A.964.964,0,0,1-345.422-179.426Z" transform="translate(424.631 209.728)" fill="#324655"/><path d="M-360.87-172.814c.146-.041.29-.087.437-.122.467-.111.934-.218,1.4-.327.591-.139.68-.239.707-.842.038-.841.045-1.684.108-2.523.052-.676.167-1.347.255-2.02a.919.919,0,0,1,.261-.509c.078.141.149.251.2.37a10.146,10.146,0,0,1,.644,2.127,8.379,8.379,0,0,1,.169,1.863,3.635,3.635,0,0,1-.262,1.352,1.734,1.734,0,0,1-1.394,1.12,4.167,4.167,0,0,1-.946.017,5.629,5.629,0,0,1-1.444-.369,1.2,1.2,0,0,1-.137-.072Z" transform="translate(430.134 209.604)" fill="#324655"/><path d="M-372.081-173.282c.092-.027.184-.059.277-.082.476-.114.952-.229,1.429-.339.674-.155.764-.259.761-.963a22.066,22.066,0,0,1,.136-2.741c.06-.5.135-1.006.206-1.508a.777.777,0,0,1,.257-.493,1.649,1.649,0,0,1,.133.211,9.1,9.1,0,0,1,.817,4.391,3.385,3.385,0,0,1-.178.793,1.786,1.786,0,0,1-1.7,1.249,4.653,4.653,0,0,1-1.63-.259c-.169-.055-.337-.118-.505-.177Z" transform="translate(435.302 209.72)" fill="#324655"/><path d="M-382.422-173.53c.082-.026.163-.058.246-.078q.66-.161,1.32-.316c.044-.011.089-.017.133-.029.48-.122.578-.23.581-.735a23.283,23.283,0,0,1,.128-2.63c.058-.485.133-.968.2-1.453a.835.835,0,0,1,.228-.446,1.632,1.632,0,0,1,.13.2,8.332,8.332,0,0,1,.753,4.095,2.964,2.964,0,0,1-.192.788,1.6,1.6,0,0,1-1.442,1.07,4.254,4.254,0,0,1-1.758-.277c-.1-.034-.2-.078-.3-.12C-382.407-173.465-382.409-173.49-382.422-173.53Z" transform="translate(440.067 209.632)" fill="#324655"/><path d="M-398.592-205.7c.573-.1,1.143-.112,1.707-.255-.067-.381-.133-.735-.191-1.091a13.194,13.194,0,0,1-.2-3.138,5.76,5.76,0,0,1,.334-1.617c.047-.124.111-.241.2-.422.071.142.12.224.155.312a7.216,7.216,0,0,1,.454,1.9c.115,1.071.206,2.145.281,3.219a4.033,4.033,0,0,1-.07,1,.739.739,0,0,1-.912.673,6.325,6.325,0,0,1-1.689-.492C-398.543-205.617-398.555-205.648-398.592-205.7Z" transform="translate(447.52 224.841)" fill="#324655"/><path d="M-386.53-205.661l1.717-.231a2.351,2.351,0,0,0-.023-.24,17.114,17.114,0,0,1-.377-3.15,6.872,6.872,0,0,1,.314-2.356,1.124,1.124,0,0,1,.264-.5c.051.106.1.19.133.278a7.968,7.968,0,0,1,.439,1.789,27.328,27.328,0,0,1,.294,3.651,3.071,3.071,0,0,1-.1.777.7.7,0,0,1-.781.57,1.636,1.636,0,0,1-.43-.053c-.442-.132-.879-.279-1.317-.424C-386.432-205.567-386.459-205.6-386.53-205.661Z" transform="translate(441.96 224.807)" fill="#324655"/><path d="M-392.822-205.683c.6-.108,1.17-.12,1.74-.262l-.076-.391a16.4,16.4,0,0,1-.346-3.182,6.815,6.815,0,0,1,.279-2.038,2.544,2.544,0,0,1,.285-.645c.068.14.12.23.156.325a8.239,8.239,0,0,1,.424,1.711,32.962,32.962,0,0,1,.305,3.353,6.312,6.312,0,0,1-.032.814,1.576,1.576,0,0,1-.08.37.678.678,0,0,1-.708.521,2.282,2.282,0,0,1-.617-.081c-.4-.114-.792-.257-1.186-.391A.792.792,0,0,1-392.822-205.683Z" transform="translate(444.86 224.833)" fill="#324655"/><path d="M-407.976-216.98a.974.974,0,0,1,.176-.067c.843-.108,1.687-.205,2.529-.322a.693.693,0,0,1,.741.382,1.249,1.249,0,0,1,.158.863.617.617,0,0,1-.757.587,2.807,2.807,0,0,1-.8-.229c-.456-.217-.892-.478-1.332-.727-.181-.1-.353-.22-.527-.335C-407.848-216.866-407.9-216.915-407.976-216.98Z" transform="translate(451.844 227.22)" fill="#324655"/><path d="M-392.73-220.961a2.234,2.234,0,0,1-.335,1.062,1.5,1.5,0,0,1-.4.4.614.614,0,0,1-.847-.218,3.41,3.41,0,0,1-.4-1.148,1.029,1.029,0,0,1,1.391-1.111.693.693,0,0,1,.451.44A5.262,5.262,0,0,1-392.73-220.961Z" transform="translate(445.732 229.368)" fill="#324655"/><path d="M-447.575-188.64a7.473,7.473,0,0,1-.177.817,1.556,1.556,0,0,1-1.15,1.086,3.479,3.479,0,0,1-1.582.123,1.843,1.843,0,0,1-1.162-.74,2.331,2.331,0,0,1,.186-3.057,2.106,2.106,0,0,1,2.062-.524A2.319,2.319,0,0,1-447.575-188.64Zm-1.358-.665a.6.6,0,0,0-.321-.384,1.407,1.407,0,0,0-.919-.148.913.913,0,0,0-.622.4,1.152,1.152,0,0,0,.736,1.774,1.253,1.253,0,0,0,1.041-.279.721.721,0,0,0,.262-.678c-.126.1-.213.173-.307.236a.423.423,0,0,1-.46.049.614.614,0,0,1-.229-.718.488.488,0,0,1,.59-.308C-449.1-189.352-449.031-189.331-448.933-189.3Z" transform="translate(472.193 215.066)" fill="#324655"/><path d="M-478.156-200.612l.215-.091C-477.995-200.571-478.053-200.541-478.156-200.612Z" transform="translate(484.189 219.534)" fill="#324655"/></g></svg>